<svg xmlns="http://www.w3.org/2000/svg" xmlns:xlink="http://www.w3.org/1999/xlink" viewBox="0 0 234.05 185.93"><defs><style>.cls-1{fill:url(#Dégradé_sans_nom_340);}.cls-2{fill:url(#Dégradé_sans_nom_340-2);}.cls-3{fill:aqua;}.cls-4{fill:#fff;}</style><linearGradient id="Dégradé_sans_nom_340" x1="-16.36" y1="65.81" x2="27.39" y2="163.96" gradientUnits="userSpaceOnUse"><stop offset="0" stop-color="#6200f7"/><stop offset="0.99" stop-color="#ff4bee"/></linearGradient><linearGradient id="Dégradé_sans_nom_340-2" x1="100.07" y1="13.91" x2="143.82" y2="112.06" xlink:href="#Dégradé_sans_nom_340"/></defs><g id="Calque_2" data-name="Calque 2"><g id="Calque_1-2" data-name="Calque 1"><path class="cls-1" d="M62.31,171.19h-.06v-.07h-.06v-.07h-.06V171h-.06v-.08L62,171v-.08l-.06,0v-.08h-.06v-.07h-.06v-.07h-.06v-.07H61.7v-.07h-.06v-.07h-.06v-.07h-.06v-.07h-.06v-.07H61.4v-.07h-.06v-.08l-.06,0v-.08l-.06,0v-.08h-.06V170H61.1V170H61v-.07H61v-.07h-.06v-.07h-.06v-.07h-.06v-.07h-.06v-.07h-.06v-.07h-.06v-.08l-.06,0v-.08h-.06v-.07h-.06v-.07h-.06v-.07h-.06v-.07h-.07v-.07h-.06v-.07h-.06V169h-.06v-.07H60v-.07h-.06v-.07h-.06v-.08l-.06,0v-.08h-.06v-.07H59.7v-.07h-.06v-.07h-.06v-.07h-.07v-.07h-.06v-.07h-.06v-.07h-.06v-.07h-.06v-.07h-.06v-.08l-.06,0V168l-.06,0V168H59v-.07H59v-.07h-.06v-.07h-.07v-.07h-.06v-.07h-.06v-.07h-.06v-.07H58.6v-.07h-.06v-.07h-.06v-.08l-.06,0v-.08l-.06,0v-.08H58.3v-.07h-.06v-.07h-.06v-.07h-.07V167h-.06v-.07H58v-.07h-.06v-.07h-.06v-.07h-.06v-.07h-.06v-.08l-.06,0v-.08l-.06,0v-.08h-.06v-.07h-.06v-.07h-.06v-.07h-.07v-.07h-.06v-.07h-.06v-.07H57.2v-.07h-.06V166h-.06V166H57v-.08l-.06,0v-.08H56.9v-.07h-.06v-.07h-.06v-.07h-.06v-.07h-.07v-.07h-.06v-.07h-.06v-.07h-.06v-.07h-.06v-.07h-.06v-.07h-.06v-.08l-.06,0v-.08l-.06,0V165h-.06V165h-.06v-.07H56v-.07h-.07v-.07h-.06v-.07H55.8v-.07h-.06v-.07h-.06v-.07h-.06v-.08l-.06,0v-.08l-.06,0v-.08h-.06v-.07h-.06v-.07h-.06v-.07h-.07v-.07h-.06v-.07h-.06V164h-.06V164H55v-.07H55v-.07h-.06v-.08l-.06,0v-.08l-.06,0v-.08h-.06v-.07h-.06v-.07h-.06v-.07h-.07v-.07h-.06v-.07H54.4v-.07h-.06v-.07h-.06v-.07h-.06v-.07h-.06V163l-.06,0V163L54,163v-.08H54v-.07h-.06v-.07h-.06v-.07h-.07v-.07h-.06v-.07h-.06v-.07h-.06v-.07h-.06v-.07h-.06v-.07h-.06v-.08l-.06,0v-.08l-.06,0v-.08h-.06v-.07h-.06v-.07h-.06V162h-.07v-.07H53v-.07h-.06v-.07h-.06v-.07h-.06v-.07h-.06v-.07H52.7v-.08l-.06,0v-.08h-.06v-.07h-.06v-.07h-.06v-.07H52.4v-.07h-.07v-.07h-.06v-.07h-.06v-.07h-.06V161h-.06V161H52v-.08l-.06,0v-.08l-.06,0v-.08h-.06v-.07h-.06v-.07h-.06v-.07h-.06v-.07H51.6v-.07h-.06v-.07h-.06v-.07h-.06v-.07h-.06v-.07H51.3v-.08l-.06,0v-.08l-.06,0v-.08h-.06V160h-.06v-.07H51v-.07h-.07v-.07h-.06v-.07h-.06v-.07h-.06v-.07h-.06v-.07h-.06v-.07h-.06v-.08l-.06,0v-.08l-.06,0v-.08h-.06v-.07h-.06v-.07h-.06v-.07H50.2v-.07h-.06V159l-3,.56V153.2l-.06,0v-.08l-.06,0v-.08H47V153h-.07V153h-.06v-.07h-.06v-.07h-.06v-.07h-.06v-.07h-.06v-.07h-.06v-.07h-.06v-.07h-.06v-.08l-.06,0v-.08h-.06v-.07h-.06v-.07H46.2v-.07h-.06v-.07h-.06v-.07H46v-.07H46V152H45.9v-.07h-.06v-.07h-.06v-.08l-.06,0v-.08l-.06,0v-.08H45.6v-.07h-.06v-.07h-.07v-.07h-.06v-.07h-.06v-.07h-.06v-.07h-.06v-.07h-.06v-.07h-.06v-.07h-.06v-.07H45V151l-.06,0V151h-.06v-.07h-.06v-.07h-.07v-.07h-.06v-.07h-.06v-.07h-.06v-.07H44.5v-.07h-.06v-.07h-.06v-.07h-.06v-.08l-.06,0v-.08l-.06,0v-.08h-.06v-.07h-.06v-.07H44V150H44V150h-.06v-.07h-.06v-.07h-.06v-.07h-.06v-.07h-.06v-.07h-.06v-.08l-.06,0v-.08l-.06,0v-.08h-.06v-.07h-.07v-.07h-.06v-.07h-.06v-.07h-.06v-.07H43.1v-.07H43v-.07H43V149h-.06V149h-.06v-.08l-.06,0v-.08h-.06v-.07h-.06v-.07h-.07v-.07h-.06v-.07h-.06v-.07h-.06v-.07h-.06v-.07h-.06v-.07h-.06v-.07h-.06v-.08l-.06,0v-.08l-.06,0v-.08H42V148H42V148h-.07v-.07h-.06v-.07h-.06v-.07H41.7v-.07h-.06v-.07h-.06v-.07h-.06v-.07h-.06v-.08l-.06,0v-.08l-.06,0v-.08h-.06v-.07h-.06v-.07h-.07v-.07h-.06v-.07H41v-.07H41V147h-.06v-.07h-.06v-.07h-.06v-.07h-.06v-.08l-.06,0v-.08l-.06,0v-.08h-.06v-.07h-.06v-.07h-.07v-.07h-.06v-.07H40.3v-.07h-.06v-.07h-.06v-.07h-.06v-.07h-.06v-.07H40V146l-.06,0V146l-.06,0v-.08h-.06v-.07h-.07v-.07h-.06v-.07h-.06v-.07h-.06v-.07h-.06v-.07h-.06v-.07h-.06v-.07h-.06v-.07h-.06v-.08l-.06,0v-.08h-.06v-.07h-.06v-.07H39v-.07H39V145H38.9v-.07h-.06v-.07h-.06v-.07h-.06v-.07h-.06v-.07H38.6v-.07h-.06v-.08l-.06,0v-.08l-.06,0v-.08h-.06v-.07h-.07v-.07h-.06v-.07h-.06v-.07h-.06v-.07h-.06v-.07H38V144h-.06V144h-.06v-.08l-.06,0v-.08l-.06,0v-.08h-.06v-.07h-.06v-.07h-.07v-.07H37.5v-.07h-.06v-.07h-.06v-.07h-.06v-.07h-.06v-.07H37.2v-.07h-.06v-.08l-.06,0v-.08l-.06,0V143H37V143H36.9v-.07h-.07v-.07h-.06v-.07h-.06v-.07h-.06v-.07h-.06v-.07h-.06v-.07h-.06v-.07h-.06v-.08l-.06,0v-.08l-.06,0v-.08h-.06v-.07h-.06v-.07H36.1v-.07H36v-.07H36V142h-.06V142h-.06v-.07H35.8v-.07h-.06v-.07h-.06v-.08l-.06,0v-.08h-.06v-.07H35.5v-.07h-.07v-.07h-.06v-.07h-.06v-.07h-.06v-.07h-.06v-.07h-.06v-.07h-.06v-.07H35V141H35V141l-6.72,1.27v3.18l-.11,0,.07-.08-.13,0,.07-.08-.13,0,.07-.08-.13,0,.07-.09-.13,0,.07-.09-.13,0,.07-.09-.13,0,.07-.09-.13,0,.07-.09-.13,0,.07-.09-.13,0,.06-.08-.12,0,.06-.08-.13,0,.07-.08-.13,0,.07-.08-.13,0,.07-.08-.13,0,.07-.08-.13,0,.07-.09-.13,0,.07-.09-.13,0,.07-.09-.13,0,.07-.09-.13,0,.07-.09-.13,0,.07-.09-.13,0,.06-.08-.12,0,.06-.08-.13,0,.07-.08-.13,0,.07-.08-.13,0,.07-.08-.13,0,.07-.08-.13,0,.07-.09-.13,0,.07-.09-.13,0,.07-.09-.13,0,.07-.09-.13,0,.07-.09-.13,0,.07-.09-.13,0,.06-.08-.13,0,.07-.08-.13,0,.07-.08-.13,0,.07-.08-.13,0,.07-.08-.13,0,.07-.08-.13,0,.07-.09-.13,0,.07-.09-.13,0,.07-.09-.13,0,.07-.09-.13,0,.07-.09-8.07,1.52L12,151.66h0v-.07H12v-.07h-.06v-.07h-.06v-.07h-.06v-.07h-.06v-.08l-.06,0v-.08h-.06v-.07h-.06v-.07h-.06V151h-.06V151h-.06v-.07h-.07v-.07h-.06v-.07h-.06v-.07H11.1v-.07H11v-.07H11v-.08l-.06,0v-.08h-.06v-.07H10.8v-.07h-.06v-.07h-.06v-.07h-.06v-.07h-.07v-.07h-.06v-.07h-.06V150h-.06V150h-.06v-.08l-.06,0v-.08l-.06,0v-.08h-.06v-.07h-.06v-.07H10v-.07H10v-.07H9.88v-.07H9.82v-.07H9.76v-.07H9.7v-.07H9.64v-.07H9.58v-.08l-.06,0v-.08l-.06,0V149H9.4V149H9.34v-.07H9.28v-.07H9.22v-.07H9.15v-.07H9.09v-.07H9v-.07H9v-.07H8.91v-.07H8.85v-.08l-.06,0v-.08H8.73v-.07H8.67v-.07H8.61v-.07H8.55v-.07H8.49v-.07H8.42V148H8.36v-.07H8.3v-.07H8.24v-.07H8.18v-.08l-.06,0v-.08l-.06,0v-.08H8v-.07H7.94v-.07H7.88v-.07H7.82v-.07H7.76v-.07H7.69v-.07H7.63v-.07H7.57v-.07H7.51v-.07H7.45V147H7.39V147l-.06,0v-.08H7.27v-.07H7.21v-.07H7.15v-.07H7.09v-.07H7v-.07H7v-.07H6.9v-.07H6.84v-.07H6.78v-.07H6.72v-.08L0,147.56V173.7H.06v.07H.12v.07H.18v.07H.24v.07H.3V174H.37v.07H.43v.07H.49v.07H.55v.08l.06,0v.08l.06,0v.08H.73v.07H.79v.07H.85v.07H.91v.07H1v.07H1v.07H1.1v.07h.06v.07h.06v.07h.06V175l.06,0V175l.06,0v.08h.06v.07h.06v.07h.06v.07h.06v.07H1.7v.07h.06v.07h.07v.07h.06v.07H2v.07H2v.08l.06,0v.08l.06,0v.08h.06v.07h.06V176h.06V176h.06v.07h.06v.07h.06v.07h.07v.07h.06v.07h.06v.07h.06v.08l.06,0v.08l.06,0v.08h.06v.07H3v.07H3v.07H3.1v.07h.06v.07h.06v.07h.07V177h.06V177h.06v.07h.06v.08l.06,0v.08h.06v.07h.06v.07h.06v.07h.06v.07h.06v.07h.06v.07H4v.07H4v.07h.06v.07h.06v.07H4.2v.08l.06,0V178h.06V178h.06v.07h.06v.07H4.5v.07h.06v.07h.06v.07h.07v.07h.06v.07h.06v.07h.06v.08l.06,0v.08l.06,0v.08h.06v.07h.06v.07h.06v.07h.06v.07h.06V179h.06v.07h.07v.07h.06v.07h.06v.07H5.6v.08l.06,0v.08l.06,0v.08h.06v.07h.06v.07H5.9v.07H6v.07H6v.07h.06v.07h.07v.07h.06v.07h.06V180h.06V180l.06,0v.08l.06,0v.08h.06v.07h.06v.07h.06v.07h.06v.07h.06v.07h.06v.07h.07v.07h.06v.07H7v.07h.06v.08l.06,0v.08h.06v.07h.06v.07H7.3V181h.06v.07h.06v.07h.06v.07h.06v.07h.07v.07h.06v.07h.06v.07h.06v.08l.06,0v.08h.06v.07H8v.07H8v.07h.06v.07h.06v.07h.06v.07h.07V182h.06V182H8.4v.07h.06v.08l.06,0v.08l.06,0v.08h.06v.07H8.7v.07h.06v.07h.06v.07h.06v.07h.06v.07H9v.07h.06v.07h.06v.07h.06v.08l.06,0V183l.06,0V183h.06v.07h.06v.07h.06v.07h.06v.07h.06v.07h.06v.07h.07v.07H9.8v.07h.06v.07h.06v.08l.06,0v.08l.06,0v.08h.06v.07h.06v.07h.06v.07h.06V184h.06V184h.06v.07h.07v.07h.06v.07h.06v.07h.06v.08l.06,0v.08l.06,0v.08h.06v.07h.06v.07H11v.07H11v.07h.06v.07h.06v.07h.07v.07h.06V185h.06V185h.06v.08l.06,0v.08h.06v.07h.06v.07h.06v.07h.06v.07h.06v.07h.06v.07h.07v.07h.06v.07H12v.07h.06v.08l.06,0v.08l.06,0v.08h.06v.07L19,184.66V171.6h0l0,0,0,0s0,0,0,0l0,0,0,0,0,0,0,0,0,0,0,0,0,0,0,0,0,0,0,0,0,0,0,0,0,0,0,0,0,0s0,0,0,0l0,0s0,0,0,0l0,0,0,0,0,0s0,0,0,0l0,0,0,0,0,0,0,0,0,0,0,0,0,0,0,0,0,0,0,0,0,0,0,0,0,0,0,0,0,0,0,0,0,0,0,0,0,0,0,0,0,0s0,0,0,0l0,0s0,0,0,0l0,0s0,0,0,0l0,0,0,0,0,0,0,0,0,0,0,0,0,0,0,0,0,0,0,0,0,0,0,0,0,0,0,0,0,0s0,0,0,0l0,0s0,0,0,0l0,0,0,0,0,0,0,0,0,0,0,0,0,0,0,0,0,0,0,0,0,0,0,0,0,0,0,0,9.41,8.27,8.25-1.56-.07-.06h0l-.07-.06h0l-.07-.06h0l-.07-.06h0l-.08-.06h0l-.08-.06h0l-.07-.06h0l-.07-.06h0l-.07-.06h0l-.07-.06h0l-.07-.06h0l-.07-.05h0l-.07-.06h0l-.07-.06h0l-.07-.06h0l-.08-.06h0l-.08-.06h0l-.08-.06h0L38,179.7h0l-.07-.06h0l-.07-.06h0l-.07-.06h0l-.07,0h0l-.07,0h0l-.07-.06h0l-.07-.06h0l-.07-.06h0l-.08-.06h0l-.08-.06h0l-.08-.06h0l-.07-.06h0l-.07-.06h0l-.07-.06h0l-.07-.06h0l-.07-.05h0l-.07-.05h0l-.07-.06h0l-.07-.06h0l-.07-.06h0l-.08-.06h0l-.08-.06h0l-.08-.06h0l-.07-.06h0l-.07-.06h0l-.07-.06h0l-.07-.06h0l-.07-.05h0l-.07-.06h0l-.07-.06h0l-.07-.06h0l-.07-.06h0l-.08-.06h0l-.08-.06h0l-.08-.06h0l-.07-.06h0l-.07-.06h0l-.07-.06h0l-.07-.06h0l-.07,0h0l-.07,0h0l-.07-.06h0l-.07-.06h0l-.07-.06h0l-.08-.06h0l-.08-.06h0l-.07-.06h0l-.07-.06h0l-.07-.06h0l-.07-.06h0l-.07-.06h0l-.07-.05h0l-.07-.06h0l-.07-.06h0l-.07-.06h0l-.08-.06h0l-.08-.06h0l-.08-.06h0l-.07-.06h0l-.07-.06h0l-.07-.06h0l-.07-.06h0l-.07,0h0l-.07-.05h0l-.07-.06h0l-.07-.06h0l-.07-.06h0l-.08-.06h0l-.08-.06h0l-.08-.06h0l-.07-.06h0l-.07-.06h0l-.07-.06h0l-.07-.06h0l-.07-.05h0l-.07,0h0L33.3,175h0l-.07-.06h0l-.07-.06h0l-.08-.06h0l-.08-.06h0l-.08-.06h0l-.07-.06h0l-.07-.06h0l-.07-.06h0l-.07-.06h0l-.07-.05h0l-.07-.05h0l-.07-.06h0l-.07-.06h0l-.07-.06h0l-.08-.06h0l-.08-.06h0l-.08-.06h0l-.07-.06h0l-.07-.06h0l-.07-.06h0l-.07-.06h0l-.07,0h0l-.07,0h0l-.07-.06h0l-.07-.06h0l-.07-.06h0l-.08-.06h0l-.08-.06h0l-.07-.06h0l-.07-.06h0l-.07-.06h0l-.07-.06h0l-.07-.06h0l-.07-.05h0l-.07-.06h0l-.07-.06h0l-.07-.06h0L31,172.7h0l-.08-.06h0l-.08-.06h0l-.07-.06h0l-.07-.06h0l-.07-.06h0l-.07-.06h0l-.07-.05h0l-.07-.05h0l-.07-.06h0l-.07-.06h0l-.07-.06h0l-.08-.06h0l-.08-.06h0l-.08-.06h0l-.07-.06h0l-.07-.06h0l-.07-.06h0l-.07-.06h0l-.07,0h0l-.07,0h0l-.07-.06h0l-.07-.06h0l-.07-.06h0l-.08-.06h0l-.08-.06h0l-.08-.06h0l-.07-.06h0l-.07-.06h0l-.07-.06h0l-.07-.06h0l-.07-.05h0l-.07-.05h0l-.07-.06h0l-.07-.06h0l-.07-.06h0l-.08-.06h0l-.08-.06h0l-.08-.06h0l-.07-.06h0l-.07-.06h0l-.07-.06h0l-.07-.06h0l-.07,0h0l-.07-.05h0l-.07-.06h0l-.07-.06h0l-.07-.06h0l-.08-.06h0l-.08-.06h0l-.08-.06h0l-.07-.06h0l-.07-.06h0l-.07-.06h0l-.07-.06h0l-.07,0h0l-.07-.06h0l-.07-.06h0l-.07-.06h0l-.07-.06h0l-.08-.06h0l-.08-.06h0l-.07-.06h0l-.07-.06h0l-.07-.06h0l-.07-.06h0l-.07-.06h0l-.07-.05h0a5.81,5.81,0,0,1,.69-1l1-1.26a2.48,2.48,0,0,0,.67.85l.06.06.06.06.06.06s0,.05.06.06,0,.05.06.06,0,.05.06.06l.07.07s0,0,.06.06,0,0,.06.06l.06.06.06.06L30,168l.06.06.06.06.06.06s0,.05.06.06,0,.05.06.06,0,.05.06.06,0,.05.07.07,0,0,.06.06,0,0,.06.06l.06.06.06.06.06.06.06.06.06.06s0,.05.06.06l.06.06.06.06s0,0,.06.06,0,0,.07.07,0,0,.06.06,0,0,.06.06l.06.06.06.06.06.06.06.06.06.06s0,.05.06.06,0,.05.06.06,0,.05.06.06,0,.05.06.06,0,.05.07.07l.06.06s0,0,.06.06l.06.06.06.06.06.06.06.06.06.06.06.06.06.06s0,.05.06.06l.07.07s0,0,.06.06l.06.06s0,0,.06.06l.06.06.06.06.06.06.06.06.06.06s0,.05.06.06,0,.05.06.06,0,0,.06.06,0,0,.07.07,0,0,.06.06,0,0,.06.06,0,0,.06.06l.06.06.06.06.06.06.06.06.06.06s0,.05.06.06,0,.05.06.06,0,.05.06.06,0,.05.07.07,0,0,.06.06,0,0,.06.06l.06.06.06.06.06.06.06.06.06.06.06.06.06.06.06.06s0,0,.06.06l.07.07s0,0,.06.06,0,0,.06.06l.06.06L35,173l.06.06.06.06.06.06s0,.05.06.06,0,.05.06.06,0,.05.06.06,0,.05.06.07,0,0,.07.06,0,0,.06.06,0,0,.06.06l.06.06.06.06.06.06.06.06.06.06.06.06s0,.05.06.06,0,.05.06.06l.07.07s0,0,.06.06,0,0,.06.06,0,0,.06.06l.06.06.06.06.06.06.06.06.06.06.06.06.06.06s0,0,.06.06,0,0,.06.07,0,0,.07.06,0,0,.06.06,0,0,.06.06l.06.06.06.06.06.06.06.06s0,.05.06.06,0,.05.06.06,0,.05.06.06,0,.05.06.06,0,.05.06.07,0,0,.07.06,0,0,.06.06,0,0,.06.06l.06.06.06.06.06.06.06.06.06.06.06.06.06.06s0,.05.06.06l.07.07s0,0,.06.06,0,0,.06.06l.06.06.06.06.06.06.06.06.06.06s0,.05.06.06,0,.05.06.06l.06.06s0,0,.06.06,0,0,.07.07,0,0,.06.06,0,0,.06.06l.06.06.06.06.06.06.06.06.06.06s0,.05.06.06,0,.05.06.06,0,.05.06.06,0,.05.06.06,0,.05.07.07,0,0,.06.06,0,0,.06.06l.06.06.06.06.06.06.06.06.06.06.06.06.06.06s0,0,.06.06,0,0,.06.07,0,0,.07.06,0,0,.06.06,0,0,.06.06l.06.06.06.06.06.06.06.06.06.06s0,.05.06.06,0,.05.06.06,0,.05.06.06,0,0,.06.07,0,0,.07.06,0,0,.06.06l.06.06.06.06a3.49,3.49,0,0,0,2.94.46l18-3.38v-5.23h-.06ZM28.23,145.5h-.05l.05-.05Z"/><path class="cls-2" d="M234.05,144.12l-10-11.38,9.67-14.7-.11,0,.05-.08-.11,0,0-.08-.11,0,0-.09-.11,0,0-.09-.12,0,.06-.09-.12,0,.06-.08-.12,0,.06-.08-.12,0,.06-.08-.12,0,.06-.08-.12,0,0-.08-.11,0,.05-.08-.11,0,.05-.08-.11,0,.05-.08-.11,0,.05-.08-.11,0,.05-.09-.11,0,.05-.09-.12,0,.06-.09-.12,0,.06-.08-.12,0,.06-.08-.12,0,.06-.08-.12,0,.06-.08-.12,0,0-.08-.11,0,0-.08-.11,0,0-.08-.11,0,0-.08-.11,0,0-.08-.11,0,.05-.09-.11,0,.05-.09-.12,0,.06-.09-.12,0,.06-.08-.12,0,.06-.08-.12,0,.06-.08-.12,0,.06-.08-.12,0,.05-.08-.11,0,.05-.08-.11,0,.05-.08-.11,0,.05-.08-.11,0,.05-.08-.11,0,0-.09-.11,0,0-.09-.12,0,.06-.09-.12,0,.06-.08-.12,0,.06-.08-.12,0,.06-.08-.12,0,.06-.08-.12,0,0-.08-.11,0,0-.08-.11,0,.05-.08-.11,0,.05-.08-.11,0,.05-.09-.11,0,.05-.09-.12,0,.06-.09-.12,0,.06-.09-.12,0,.06-.08-.12,0,.06-.08-.12,0,.06-.08-.12,0,.06-.08-.12,0,.05-.08-.11,0,0-.08-.11,0,0-.08-.11,0,0-.08-.11,0,0-.09-.11,0,0-.09-.12,0,.06-.09-.12,0,.06-.08-.12,0,.06-.08-.12,0,.06-.08-.12,0,.06-.08-.12,0,.06-.08-.12,0,.05-.08-.11,0,.05-.08-.11,0,.05-.08-.11,0,.05-.08-.11,0,.05-.09-.11,0,.05-.09-.12,0,.06-.09-.12,0,.06-.08-.12,0,.06-.08-.12,0,.06-.08-.12,0,.06-.08-.12,0,0-.08-.11,0,0-.08-.11,0,0-.08-.11,0,0-.08-.11,0,.05-.08-.11,0,.05-.09-.11,0,.05-.09-.12,0,.06-.09-.12,0,.06-.08-.12,0,.06-.08-.12,0,.06-.08-.12,0,.06-.08-.12,0,.05-.08-.11,0,.05-.08-.11,0,.05-.08-.11,0,0-.08-.11,0,0-.08-.11,0,0-.09-.11,0,0-.09-.12,0,.06-.09-.12,0,.06-.08-.12,0,.06-.08-.12,0,.06-.08-.12,0,.06-.08-.12,0,.05-.08-.11,0,.05-.08-.11,0,.05-.08-.11,0,.05-.08-.11,0,.05-.08-.11,0,.05-.09-.11,0,.05-.09-.12,0,.06-.09-.12,0,.06-.08-.12,0,.06-.08-.12,0,.06-.08-.12,0,.06-.08-.12,0,0-.08-.11,0,0-.08-.11,0,0-.08-.11,0,0-.08-.11,0,0-.09-.11,0,.05-.09-.12,0,.06-.09-.12,0,.06-.08-.12,0,.06-.08-.12,0,.06-.08-.12,0,.06-.08-.12,0,.06-.08-.12,0,.05-.08-.11,0,.05-.08-.11,0,.05-.08-.11,0,.05-.08-.11,0,0-.09-.11,0,0-.09-.12,0,.06-.09-.12,0,.06-.08-.12,0,.06-.08-.12,0,.06-.08-.12,0,.06-.08-.12,0,0-.08-.11,0,0-.08-.11,0,.05-.08-.11,0,.05-.08-.11,0,.05-.08-.11,0,.05-.09-.11,0,.05-.09-.12,0,.06-.09-.12,0,.06-.08-.12,0,.06-.08-.12,0,.06-.08-.12,0,.06-.08-.12,0,.05-.08-.11,0,.05-.08-.11,0,0-.08-.11,0,0-.08-.11,0,0-.08-.11,0,0-.09-.11,0,0-.09-.12,0,.06-.09-.12,0,.06-.08-.12,0,.06-.08-.12,0,.06-.08-.12,0,.06-.08-.12,0,.05-.08-.11,0,.05-.08-.11,0,.05-.08-.11,0,.05-.08-.11,0,.05-.08-.11,0,.05-.09-.11,0,0-.09-.12,0,.06-.09-.12,0,.06-.08-.12,0,.06-.08-.12,0,.06-.08-.12,0,.06-.08-.12,0,0-.08-.11,0,0-.08-.11,0,0-.08-.11,0,.05-.08-.11,0,.05-.09-.11,0,.05-.09-.12,0,.06-.09-.12,0,.06-.08-.12,0,.06-.08-.12,0,.06-.08-.12,0,.06-.08-.12,0,.06-.08-.12,0,.05-.08-.11,0,.05-.08-.11,0,.05-.08-.11,0,0-.08-.11,0,0-.09-.11,0,0-.09-.12,0,.06-.09-.12,0,.06-.08-.12,0,.06-.08-.12,0,.06-.08-.12,0,.06-.08-.12,0,0-.08-.11,0,.05-.08-.11,0,.05-.08-8,1.5-5,8.27,0,0h0l0-.06h0l0-.07h0l0-.07h0l-.05-.07h0l-.05-.06h0l-.05-.06h0l0-.06h0l0-.06h0L208,115h0l-.05-.06h0l-.05-.06h0l-.05-.06h0l-.05-.07h0l-.05-.07h0l-.05-.07h0l0-.07h0l0-.06h0l0-.06h0l0-.06h0l0-.06h0l0-.06h0l0-.06h0l0-.06h0l0-.06h0L207,114h0L207,114h0l-.05-.07h0l-.05-.07h0l-.05-.06h0l-.05-.06h0l0-.06h0l-.05-.06h0l-.05-.06h0l-.05-.06h0l-.05-.06h0l0-.06h0l0-.07h0l0-.07h0l0-.07h0l0-.07h0l-.05-.06h0L206,113h0l0-.06h0l0-.06h0l-.05-.06h0l-.05-.06h0l-.05-.06h0l-.05-.06h0l-.05-.07h0l-.05-.07h0l-.05-.07h0l-.05-.06h0l0-.06h0l0-.06h0l0-.06h0l-.05-.06h0l0-.06h0l0-.06h0l0-.06h0l0-.06h0l0-.07h0l-.05-.07h0l-.05-.07h0l-.05-.06h0l-.05-.06h0l-.05-.06h0l0-.06h0l-.05-.06h0l-.05-.06h0l-.05-.06h0l-.05-.06h0l-.05-.07h0l0-.07h0l0-.07h0l0-.07h0l0-.06h0l0-.06h0l0-.06h0l0-.06h0l0-.06h0l0-.06h0l-.05-.06h0l-.05-.06h0l-.05-.07h0l-.05-.07h0l-.05-.07h0l-.05-.07h0l-.05-.06h0l-.05-.06h0l0-.06h0L203,110h0L203,110h0l-.05-.06h0l0-.06h0l0-.06h0l0-.07h0l0-.07h0l0-.07h0l-.05-.07h0l-.05-.06h0l-.05-.06-8,1.5L204.12,122l-2.21,3.35h0l-.06-.06-.06-.06-.06-.06-.06-.06-.06-.07-.06-.06-.07-.06-.06-.06-.06-.06-.06-.06-.06-.06-.06-.06-.06-.06-.06-.06-.06-.06-.06-.06a.34.34,0,0,0-.06-.06l-.06-.07-.07-.06s0,0-.06-.06l-.06-.06-.06-.06-.06-.06-.06-.06-.06-.06-.06-.06-.06-.06-.06-.06-.06-.07-.06-.06-.07-.06-.06-.06-.06-.06-.06-.06-.06-.06-.06-.06-.06-.06-.06-.06-.06-.06-.06-.06-.06-.07-.06-.06-.07-.06-.06-.06-.06-.06-.06-.06-.06-.06-.06-.06-.06-.06-.06-.06-.06-.06a.34.34,0,0,0-.06-.06l-.06-.07s0,0-.06-.06l-.07-.06-.06-.06-.06-.06-.06-.06-.06-.06-.06-.06-.06-.06-.06-.06-.06-.06-.06-.07-.06-.06-.07-.06s0,0-.06-.06l-.06-.06-.06-.06-.06-.06-.06-.06-.06-.06-.06-.06-.06-.06-.06-.06-.06-.07-.06-.06-.07-.06s0,0-.06-.06l-.06-.06-.06-.06-.06-.06-.06-.06-.06-.06-.06-.06-.06-.06-.06-.06-.06-.07-.06-.06-.07-.06-.06-.06-.06-.06-.06-.06-.06-.06-.06-.06-.06-.06-.06-.06-.06-.06-.06-.06-.06-.07-.06-.06-.07-.06-.06-.06-.06-.06-.06-.06-.06-.06-.06-.06-.06-.06-.06-.06-.06-.06a.34.34,0,0,0-.06-.06l-.06-.07-.06-.06-.07-.06-.06-.06-.06-.06-.06-.06-.06-.06-.06-.06-.06-.06-.06-.06-.06-.06-.06-.06-.06-.07-.07-.06s0,0-.06-.06l-.06-.06-.06-.06-.06-.06-.06-.06-.06-.06-.06-.06-.06-.06-.06-.06-.06-.06-.06-.07-.07-.06-.06-.06-.06-.06-.06-.06-.06-.06-.06-.06-.06-.06-.06-.06-.06-.06-.06-.06-.06-.07-.06-.06-.07-.06-.06-.06-.06-.06-.06-.06-.06-.06-.06-.06-.06-.06-.06-.06-.06-.06-.06-.06-.06-.07-.06-.06-.07-.06-.06-.06-.06-.06-.06-.06-.06-.06-.06-.06-.06-.06-.06-.06-.06-.06-.06-.06-.06-.07-.06-.06-.07-.06-.06-.06-.06-.06a5.86,5.86,0,0,0-3.1-1.67c11.48-3.2,15.72-8.83,15.72-23.5,0-7.43-1.1-12.14-3.68-14.82l-.06-.06-.06-.07-.06-.06-.06-.06-.06-.06-.06-.06-.07-.06-.06-.06-.06-.06-.06-.06-.06-.06-.06-.06a.34.34,0,0,0-.06-.06l-.06-.07-.06-.06-.06-.06-.06-.06-.06-.06-.07-.06-.06-.06-.06-.06-.06-.06-.06-.06-.06-.06-.06-.07-.06-.06-.06-.06-.06-.06-.06-.06s0,0-.06-.06l-.07-.06-.06-.06-.06-.06-.06-.06-.06-.06-.06-.06-.06-.07a.34.34,0,0,1-.06-.06l-.06-.06-.06-.06-.06-.06-.07-.06s0,0-.06-.06L197.5,72l-.06-.06-.06-.06-.06-.06-.06-.06-.06-.07-.06-.06-.06-.06L197,71.5l-.06-.06-.07-.06-.06-.06-.06-.06-.06-.06-.06-.06-.06-.06-.06-.06-.06-.07-.06-.06-.06-.06-.06-.06-.06-.06-.07-.06-.06-.06-.06-.06-.06-.06-.06-.06-.06-.06-.06-.07a.34.34,0,0,1-.06-.06l-.06-.06-.06-.06-.06-.06-.07-.06-.06-.06-.06-.06-.06-.06-.06-.06-.06-.06-.06-.06-.06-.07-.06-.06-.06-.06-.06-.06-.06-.06-.07-.06s0,0-.06-.06l-.06-.06-.06-.06-.06-.06-.06-.06-.06-.06-.06-.07-.06-.06-.06-.06-.06-.06-.06-.06-.07-.06s0,0-.06-.06l-.06-.06-.06-.06-.06-.06-.06-.06-.06-.06-.06-.07-.06-.06-.06-.06-.06-.06-.06-.06-.07-.06-.06-.06-.06-.06-.06-.06-.06-.06-.06-.06-.06-.07-.06,0-.06-.07-.06-.06-.06-.06-.06-.06s0,0-.06-.06l-.07-.06-.06-.06-.06-.06-.06-.06-.06-.06-.06-.07a.34.34,0,0,1-.06-.06l-.06-.06-.06-.06-.06-.06-.07-.06-.06-.06-.06-.06-.06-.06-.06-.06-.06-.06-.06-.06-.06-.07-.06-.06-.06-.06-.06-.06-.06-.06-.07-.06s0,0-.06-.06l-.06-.06-.06-.06-.06-.06-.06-.06-.06-.06-.06-.07-.06-.06-.06-.06-.06-.06-.06-.06-.06-.06-.07-.06-.06-.06-.06-.06-.06-.06-.06-.06-.06-.07-.06,0-.06-.07-.06-.06-.06-.06-.06-.06s-.05,0-.06-.06l-.07-.06-.06-.06-.06-.06-.06-.06-.06-.06-.06-.06a.34.34,0,0,0-.06-.06l-.06-.07-.06-.06-.06-.06-.06-.06s-.05,0-.06-.06l-.07-.06-.06-.06-.06-.06-.06-.06-.06-.06-.06-.07-.06-.06L188.5,63l-.06-.06-.06-.06-.07-.06s0,0-.06-.06l-.06-.06-.06-.06-.06-.06L188,62.5c-1.77-1.88-4.25-2.78-7.56-3l.74-.14V53.18h.06v.08l.06,0v.08l.06,0v.08h.06v.07h.06v.07h.06v.07h.06v.07h.06v.07h.06v.07h.06v.07h.06v.07h.07v.07H182V54l.06,0V54l.06,0v.08h.06v.07h.06v.07h.06v.07h.06v.07h.06v.07h.06v.07h.06v.07h.07v.07h.06v.08l.06,0v.08l.06,0v.08h.06v.07h.06v.07H183V55H183V55h.06v.07h.06v.07h.06v.07h.06v.07h.07v.07h.06v.08l.06,0v.08l.06,0v.08h.06v.07h.06v.07h.06v.07h.06v.07h.06v.07h.06v.07h.06v.07H184V56h.07V56h.06v.08l.06,0v.08l.06,0v.08h.06v.07h.06v.07h.06v.07h.06v.07h.06v.07h.06v.07h.06v.07h.06v.07h.07v.07h.06v.08l.06,0v.08H185V57H185V57h.06v.07h.06v.07h.06v.07h.06v.07h.06v.07h.06v.07h.06v.07h.07v.07h.06v.08l.06,0v.08l.06,0v.08h.06v.07h.06v.07h.06v.07h.06v.07H186V58h.06v.07h.06v.07h.06v.07h.07v.07h.06v.08l.06,0v.08h.06v.07l10.44-2V37.67l0,0,.06.06.06.06.06.07.07.06.06.06.06.06.06.06.06.06.06.06.06.06.06.06.06.06.06.06.06.07.06,0s0,.05.07.07l.06.06.06.06.06.06.06.06.06.06.06.06.06.06.06.06.06.06.06.06.06.07.07.06.06.06.06.06.06.06.06.06.06.06.06.06.06.06.06.06.06.06.06.06.07.07.06.06.06.06.06.06.06.06.06.06.06.06.06.06.06.06.06.06.06.06s0,.05.06.06l.07.07.06.06.06.06.06.06.06.06.06.06.06.06.06.06.06.06.06.06.06.06.06.06.07.07.06.06.06.06.06.06.06.06.06.06.06.06.06.06.06.06.06.06.06.06.06.07.07.06.06.06.06.06.06.06.06.06.06.06.06.06.06.06.06.06.06.06.06.06c.62.59,1.29,1.13,1.87,1.67l9.17,8.84L225.94,51l-.07-.06h0l-.08-.06h0l-.08-.06h0l-.07-.06h0l-.07-.06h0l-.07,0h0l-.07-.06h0l-.07-.06h0l-.07-.06h0l-.07-.06h0l-.07-.06h0l-.07-.06h0l-.07-.06h0l-.08-.06h0l-.08-.06h0L225,50h0l-.07-.06h0l-.07,0h0l-.07-.06h0l-.07-.06h0l-.07-.06h0l-.07-.06h0l-.07-.06h0l-.07-.06h0l-.07-.06h0l-.08-.06h0l-.08-.06h0l-.07-.06h0l-.07,0h0l-.07-.05h0l-.07-.06h0L224,49h0l-.07-.06h0l-.07-.06h0l-.07-.06h0l-.07-.06h0l-.08-.06h0l-.08-.06h0l-.08-.06h0l-.07-.06h0l-.07-.05h0l-.07,0h0l-.07-.06h0l-.07-.06h0l-.07-.06h0l-.07-.06h0l-.07-.06h0l-.07-.06h0l-.08-.06h0l-.08-.06h0l-.08-.06h0l-.07-.06h0l-.07,0h0l-.07-.05h0l-.07-.06h0l-.07-.06h0l-.07-.06h0l-.07-.06h0l-.07-.06h0l-.07-.06h0l-.08-.06h0l-.08-.06h0l-.07-.06h0l-.07-.06h0L222,47h0l-.07-.06h0l-.07-.06h0l-.07-.06h0l-.07-.06h0l-.07-.06h0l-.07-.06h0l-.07-.06h0l-.08-.06h0l-.08-.06h0l-.07-.06h0l-.07-.06h0l-.07-.05h0l-.07-.06h0l-.07-.06h0l-.07-.06h0L221,46h0l-.07-.06h0l-.07-.06h0l-.07-.06h0l-.08-.06h0l-.08-.06h0l-.07-.06h0l-.07-.06h0l-.07,0h0l-.07-.06h0l-.07-.06h0l-.07-.06h0l-.07-.06h0l-.07-.06h0l-.07-.06h0l-.08-.06h0l-.08-.06h0L220,45h0L219.9,45h0l-.07,0h0l-.07-.05h0l-.07-.06h0l-.07-.06h0l-.07-.06h0l-.07-.06h0l-.07-.06h0l-.07-.06h0l-.08-.06h0l-.08-.06h0l-.08-.06h0l-.07-.06h0l-.07-.05h0l-.07,0h0L219,44h0l-.07-.06h0l-.07-.06h0l-.07-.06h0l-.07-.06h0l-.07-.06h0l-.08-.06h0l-.08-.06h0l-.07-.06h0l-.07-.06h0l-.07,0h0l-.07-.06h0l-.07-.06h0l-.07-.06h0l-.07-.06h0l-.07-.06h0l-.07-.06h0L218,43h0l-.08-.06h0l-.08-.06h0l-.07-.06h0l-.07-.06h0l-.07,0h0l-.07-.06h0l-.07-.06h0l-.07-.06h0l-.07-.06h0l-.07-.06h0l-.07-.06h0l-.07-.06h0l-.08-.06h0l-.08-.06h0l-.07-.06h0L217,42h0l-.07-.05h0l-.07-.06h0l-.07-.06h0l-.07-.06h0l-.07-.06h0l-.07-.06h0l-.07-.06h0l-.08-.06h0l-.08-.06h0l-.08-.06h0l-.07-.06h0l-.07-.05h0l-.07,0h0l-.07-.06h0l-.07-.06h0l-.07-.06h0L216,41h0l-.07-.06h0l-.07-.06h0l-.08-.06h0l-.08-.06h0l-.08-.06h0l-.07-.06h0l-.07,0h0l-.07-.05h0l-.07-.06h0l-.07-.06h0l-.07-.06h0l-.07-.06h0l-.07-.06h0l-.07-.06h0l-.08-.06h0L215,40h0l-.07-.06h0l-.07-.06h0l-.07,0h0l-.05,0,1.15-.22c7.48-1.41,9.22-8.64,9.22-15.72,0-4.74-.77-8.22-2.94-10.09,0,0,0,0-.06-.06l-.06-.06-.06-.06-.06-.06-.07-.06-.06-.06-.06-.06-.06-.06-.06-.06s0-.05-.06-.06,0-.05-.06-.06l-.06-.07-.06-.06-.06-.06-.06-.06-.06-.06-.07-.06a.34.34,0,0,0-.06-.06l-.06-.06-.06-.06-.06-.06s0-.05-.06-.06l-.06-.07s0,0-.06-.06l-.06-.06-.06-.06-.06-.06-.06-.06-.07-.06-.06-.06-.06-.06-.06-.06s0-.05-.06-.06l-.06-.06-.06-.07s0,0-.06-.06l-.06-.06-.06-.06-.06-.06-.07-.06a.34.34,0,0,0-.06-.06l-.06-.06-.06-.06-.06-.06s0-.05-.06-.06,0,0-.06-.06l-.06-.07-.06-.06-.06-.06-.06-.06-.06-.06L219,10.6l-.06-.06-.06-.06-.06-.06-.06-.06-.06-.06-.06-.06-.06-.07s0,0-.06-.06l-.06-.06-.06-.06-.06-.06-.07-.06-.06-.06-.06-.06-.06-.06L218,9.63s0-.05-.06-.06l-.06-.07-.06-.06s0,0-.06-.06l-.06-.06-.06-.06-.06-.06-.07-.06-.06-.06L217.43,9,217.37,9l-.06-.06s0-.05-.06-.06l-.06-.07s0,0-.06-.06l-.06-.06L217,8.59,217,8.53l-.06-.06-.07-.06-.06-.06-.06-.06-.06-.06-.06-.06-.06-.06L216.46,8s0,0-.06-.06l-.06-.06-.06-.06-.06-.06-.07-.06-.06-.06a.34.34,0,0,0-.06-.06L216,7.56l-.06-.06s0,0-.06-.06,0-.05-.06-.06l-.06-.07-.06-.06-.06-.06-.06-.06-.06-.06L215.42,7,215.36,7l-.06-.06-.06-.06-.06-.06-.06-.06s0,0-.06-.06L215,6.58s0,0-.06-.06l-.06-.06-.06-.06-.06-.06-.07-.06-.06-.06-.06-.06-.06-.06L214.45,6s0,0-.06-.06l-.06-.07s0,0-.06-.06,0,0-.06-.06l-.06-.06-.06-.06L214,5.61,214,5.55l-.06-.06-.06-.06-.06-.06s0,0-.06-.06,0,0-.06-.06l-.06-.07-.06-.06-.06-.06L213.42,5l-.06-.06-.07-.06-.06-.06-.06-.06-.06-.06-.06-.06L213,4.58l-.06-.06-.06-.07s0,0-.06-.06,0,0-.06-.06l-.06-.06-.06-.06a.34.34,0,0,1-.06-.06l-.07-.06a.34.34,0,0,0-.06-.06L212.38,4l-.06-.06s0-.05-.06-.06,0-.05-.06-.06l-.06-.07-.06-.06L212,3.6,212,3.54l-.06-.06-.07-.06-.06-.06-.06-.06-.06-.06-.06-.06s0-.05-.06-.06l-.06-.07s0,0-.06-.06,0,0-.06-.06l-.06-.06-.06-.06-.06-.06-.07-.06a.34.34,0,0,0-.06-.06L211,2.57l-.06-.06-.06-.06-.06-.06-.06-.07s0,0-.06-.06,0,0-.06-.06l-.06-.06-.06-.06a.34.34,0,0,1-.06-.06L210.37,2a.34.34,0,0,0-.06-.06l-.06-.06-.06-.06-.06-.06s0-.05-.06-.06L210,1.59c-1.69-1.49-4.24-2-8-1.27l-21.7,4.09c-3.77.71-6.15,3.07-6.15,7.42v.24h0V12h-.06V12H174v-.07H174v-.07h-.06v-.07h-.06V11.7l-.06,0v-.08l-.06,0v-.08h-.06v-.07h-.06v-.07h-.06V11.4h-.06v-.07h-.06v-.07h-.06v-.07h-.06v-.07h-.07V11.1h-.06V11h-.06V11l-.06,0v-.08l-.06,0v-.08h-.06v-.07h-.06v-.07h-.06v-.07h-.06v-.07h-.06v-.07h-.06v-.07h-.06v-.07h-.07v-.07h-.06v-.07h-.06v-.08l-.06,0v-.08l-.06,0v-.08h-.06v-.07h-.06V10h-.06V9.94H172V9.88H172V9.82h-.06V9.76h-.06V9.7h-.07V9.64h-.06V9.58h-.06V9.51l-.06,0V9.45l-.06,0V9.39h-.06V9.33h-.06V9.27h-.06V9.21h-.06V9.15h-.06V9.09h-.06V9h-.07V9H171V8.91H171V8.85h-.06V8.78l-.06,0V8.72h-.06V8.66h-.06V8.6h-.06V8.54h-.06V8.48h-.06V8.42h-.06V8.36h-.06V8.3h-.07V8.24h-.06V8.18h-.06V8.12h-.06V8.05l-.06,0V8h-.06V7.93H170V7.87H170V7.81h-.06V7.75h-.06V7.69h-.06V7.63h-.06V7.57h-.07V7.51h-.06V7.45h-.06V7.38l-.06,0V7.32l-.06,0V7.26h-.06V7.2h-.06V7.14h-.06V7.08h-.06V7h-.06V7H169V6.9H169V6.84h-.07V6.78h-.06V6.72h-.06V6.65l-.06,0V6.59l-27.91,5.27c-3.77.71-6.15,3.07-6.15,7.42v5.87h0l-.06-.06-.06-.06-.07-.07-.06-.06-.06-.06-.06-.06-.06-.06-.06-.06-.06-.06-.06-.06-.06-.06-.06-.06-.06-.06-.06-.06s0-.05-.07-.07l-.06-.06-.06-.06-.06-.06-.06-.06-.06-.06-.06-.06-.06-.06-.06-.06-.06-.06-.06-.06s0-.05-.06-.06,0-.05-.07-.07l-.06-.06-.06-.06-.06-.06-.06-.06-.06-.06-.06-.06-.06-.06-.06-.06-.06-.06-.06-.06s0,0-.07-.06,0-.05-.06-.07l-.06-.06-.06-.06-.06-.06-.06-.06-.06-.06-.06-.06-.06-.06-.06-.06-.06-.06-.06-.06s0-.05-.07-.06l-.06-.07L131.5,22l-.06-.06-.06-.06-.06-.06-.06-.06-.06-.06-.06-.06-.06-.06L131,21.5l-.06-.06s0-.05-.07-.06l-.06-.07-.06-.06-.06-.06-.06-.06-.06-.06-.06-.06-.06-.06-.06-.06-.06-.06-.06-.06-.06-.06s0-.05-.07-.07l-.06-.06-.06-.06-.06-.06-.06-.06-.06-.06-.06-.06-.06-.06-.06-.06-.06-.06-.06-.06s0-.05-.07-.06,0-.05-.06-.07,0,0-.06-.06l-.06-.06-.06-.06-.06-.06-.06-.06-.06-.06-.06-.06-.06-.06-.06-.06-.06-.06-.07-.06s0-.05-.06-.07l-.06-.06-.06-.06-.06-.06-.06-.06-.06-.06-.06-.06-.06-.06-.06-.06-.06-.06-.06-.06s0,0-.07-.06l-.06-.07-.06-.06-.06-.06-.06-.06-.06-.06-.06-.06-.06-.06-.06-.06-.06-.06-.06-.06-.06-.06s0-.05-.07-.06l-.06-.07-.06-.06-.06-.06-.06-.06-.06-.06c-1.67-1.61-4.27-2.22-8.23-1.47L97.18,20.08c-3.77.71-6.15,3.08-6.15,7.43v1.32H91v-.07h-.06v-.07h-.06v-.07h-.06v-.07h-.06v-.07h-.06v-.07H90.6v-.07h-.06v-.07h-.06v-.07h-.06v-.08l-.06,0v-.08H90.3V28.1h-.06V28h-.06V28h-.06v-.07h-.06v-.07H90V27.8h-.06v-.07h-.07v-.07h-.06v-.07h-.06v-.07h-.06v-.08l-.06,0v-.08h-.06v-.07h-.06v-.07h-.06v-.07h-.06v-.07h-.06v-.07h-.06v-.07H89.2V27h-.06V27h-.06v-.07H89v-.08l-.06,0v-.08l-.06,0V26.7h-.06v-.07h-.06v-.07h-.06v-.07h-.06v-.07H88.6V26.4h-.06v-.07h-.07v-.07h-.06v-.07h-.06v-.07h-.06v-.08l-.06,0V26l-.06,0V26h-.06v-.07h-.06v-.07H88v-.07h-.06v-.07h-.06v-.07h-.06v-.07h-.07v-.07h-.06v-.07h-.06v-.07h-.06v-.08l-.06,0V25.3l-.06,0v-.08h-.06v-.07h-.06v-.07h-.06v-.07H87.2V25h-.06v-.07h-.06v-.07H87v-.07H87v-.07h-.06V24.7h-.06v-.08l-.06,0v-.08l-.06,0v-.08h-.06v-.07h-.06v-.07h-.06v-.07h-.06v-.07h-.06v-.07h-.06v-.07h-.07v-.07h-.06V24h-.06V24H86.1V23.9l-.06,0v-.08H86v-.07h-.06v-.07h-.06v-.07H85.8V23.6h-.06v-.07h-.06v-.07h-.07v-.07h-.06v-.07h-.06V23.3h-.06v-.08l-.06,0v-.08l-.06,0v-.08h-.06v-.07h-.06V23h-.06v-.07h-.06v-.07H85v-.07H85v-.07h-.07v-.07h-.06v-.07h-.06v-.07H84.7V22.5l-.06,0v-.08l-10.45,2V49c0,4.36-1.5,7.17-4.71,8.76V39.84h-.06v-.07h-.06v-.07H69.3v-.08l-.06,0v-.08l-.06,0v-.08h-.06v-.07h-.07v-.07H69v-.07h-.06v-.07h-.06v-.07h-.06v-.07h-.06v-.07h-.06v-.07h-.06V39h-.06v-.08l-.06,0v-.08l-.06,0V38.8h-.06v-.07h-.07v-.07h-.06v-.07H68.2v-.07h-.06V38.5h-.06v-.07H68v-.07H68v-.07H67.9v-.08l-.06,0v-.08l-.06,0v-.08h-.06v-.07h-.07V38h-.06V38h-.06v-.07h-.06v-.07h-.06v-.07h-.06v-.07h-.06v-.07h-.06v-.07h-.06v-.08l-.06,0v-.08l-.06,0V37.4H67v-.07h-.07v-.07h-.06v-.07H66.8v-.07h-.06V37.1h-.06V37h-.06V37h-.06v-.07H66.5v-.07h-.06v-.08l-.06,0v-.08l-.06,0v-.08h-.06v-.07h-.07v-.07h-.06v-.07h-.06v-.07H66v-.07H66v-.07h-.06v-.07h-.06v-.07h-.06v-.07h-.06v-.08l-.06,0V36l-.06,0v-.08h-.06v-.07h-.07v-.07H65.4v-.07h-.06V35.7h-.06v-.07h-.06v-.07h-.06v-.07H65.1v-.07H65V35.4H65v-.08l-.06,0v-.08h-.06v-.07H64.8v-.07h-.07v-.07h-.06V35h-.06V35h-.06v-.07h-.06v-.07h-.06v-.07h-.06v-.07h-.06v-.08l-.06,0V34.6l-.06,0v-.08h-.06v-.07h-.07v-.07H64v-.07h-.06V34.3h-.06v-.07h-.06v-.07h-.06v-.07H63.7v-.07h-.06V34h-.06v-.07h-.06v-.08l-.06,0v-.08H63.4v-.07h-.07v-.07h-.06v-.07h-.06v-.07h-.06v-.07h-.06v-.07H63v-.07H63v-.07h-.06v-.07h-.06V33.2l-.06,0v-.08l-.06,0v-.08h-.06V33H62.6V33h-.06V32.9h-.06v-.07h-.06v-.07h-.06v-.07H62.3v-.07h-.06V32.6h-.06v-.07h-.06v-.08l-.06,0v-.08l-.06,0v-.08h-.06v-.07h-.07v-.07h-.06v-.07h-.06v-.07h-.06v-.07h-.06V32h-.06v-.07h-.06v-.07h-.06v-.07h-.06v-.08l-.06,0v-.08l-.06,0v-.08h-.06v-.07h-.07V31.5h-.06v-.07H61v-.07H61v-.07H60.9v-.07h-.06V31.2h-.06v-.07h-.06v-.07h-.06V31l-.06,0V31l-.06,0v-.08h-.06v-.07h-.07v-.07h-.06v-.07h-.06v-.07h-.06v-.07h-.06v-.07h-.06v-.07h-.06v-.07H60v-.08l-.06,0v-.08l-.06,0v-.08h-.06v-.07h-.07V30.1h-.06V30h-.06V30h-.06v-.07H59.5v-.07h-.06V29.8h-.06v-.07h-.06v-.07h-.06v-.08l-.06,0v-.08l-.06,0v-.08h-.06v-.07H59v-.07H59v-.07h-.06v-.07h-.06v-.07h-.06v-.07h-.06v-.07h-.06V29h-.06V29h-.06v-.08l-.06,0v-.08l-.06,0v-.08h-.06V28.7h-.07v-.07h-.06v-.07h-.06v-.07H58.1v-.07H58V28.4H58v-.07h-.06v-.07h-.06v-.07H57.8v-.08l-.06,0v-.08h-.06V28h-.06V28h-.07v-.07h-.06v-.07h-.06v-.07h-.06v-.07h-.06v-.07h-.06v-.07l-10.45,2V38h0V37.9h-.06v-.07h-.06v-.07H46.6v-.08l-.06,0v-.08h-.06v-.07h-.07v-.07h-.06v-.07h-.06v-.07h-.06v-.07h-.06v-.07h-.06v-.07h-.06v-.07H46v-.07h-.06V37l-.06,0V37l-.06,0v-.08h-.07v-.07h-.06V36.8h-.06v-.07h-.06v-.07H45.5v-.07h-.06v-.07h-.06V36.5h-.06v-.07h-.06v-.07H45.2v-.08l-.06,0v-.08l-.06,0v-.08H45v-.07H45v-.07h-.06V36h-.06V36h-.06v-.07h-.06v-.07h-.06v-.07h-.06v-.07h-.06v-.07h-.06v-.08l-.06,0v-.08l-.06,0v-.08h-.07V35.4h-.06v-.07h-.06v-.07H44.1v-.07H44v-.07H44V35.1h-.06V35h-.06V35H43.8v-.07h-.06v-.08l-.06,0v-.08h-.06v-.07h-.07v-.07h-.06v-.07h-.06v-.07h-.06v-.07h-.06v-.07h-.06v-.07h-.06v-.07h-.06v-.07h-.06v-.07H43v-.08l-.06,0v-.08l-.06,0V34h-.07v-.07h-.06v-.07H42.7v-.07h-.06v-.07h-.06V33.7h-.06v-.07h-.06v-.07H42.4v-.07h-.06v-.08l-.06,0v-.08l-.06,0v-.08h-.07v-.07h-.06v-.07H42v-.07H42v-.07h-.06V33h-.06V33h-.06v-.07h-.06v-.07h-.06v-.07h-.06v-.08l-.06,0v-.08l-.06,0V32.6h-.07v-.07h-.06v-.07H41.3v-.07h-.06v-.07h-.06V32.3h-.06v-.07h-.06v-.07H41v-.07h-.06v-.07h-.06V32l-.06,0v-.08l-.06,0v-.08h-.07v-.07h-.06v-.07h-.06v-.07h-.06v-.07h-.06v-.07h-.06v-.07h-.06v-.07h-.06v-.07h-.06v-.07h-.06v-.08l-.06,0V31.2l-.06,0v-.08H40v-.07H39.9V31h-.06V31h-.06V30.9L14.71,35.62c-6.73,1.27-9.4,6-9.4,12.05,0,3.57.62,6.41,2.4,8.17l.06.06.06.06.06.06.06.06.06.06.06.06.06.07.06.06.06.06.06.06.07.06.06.06.06.06.06.06.06.06.06.06.06.06.06.06.06.07.06.06.06.06.06.06.06.06.07.06.06.06.06.06.06.06.06.06.06.06.06.06.06.07.06.06.06.06.06.06.06.06L9.9,58l.06.06.06.06.06.06.06.06.06.06.06.06.06.07.06.06.06.06.06.06.07.06.06.06.06.06.06.06.06.06.06.06.06.06.06.07.06.06.06.06.06.06.06.06.07.06.06.06.06.06.06.06.06.06.06.06.06.06.06.07.06.06.06.06.06.06.06.06.07.06.06.06.06.06.06.06.06.06.06.06.06.06.06.07.06.06.06.06.06.06.06.06.07.06.06.06.06.06.06.06.06.06.06.06.06.06.06.07.06.06.06.06.06.06.06.06.07.06.06.06.06.06.06.06.06.06.06.06.06.07.06.06.06.06.06.06.06.06.07.06.06.06.06.06.06.06.06.06.06.06.06.06.06.07.06.06.06.06.06.06.06.06.07.06.06.06.06.06.06.06.06.06.06.06.06.06.06.07.06.06.06.06.06.06.06.06.07.06.06.06.06.06.06.06.06.06.06.06.06.06.06.07.06.06.06.06.06.06.06.06.07.06.06.06.06.06.06.06.06.06.06.06.06.07.06.06.06.06.06.06.06.06.07.06.06.06.06.06.06.06.06.06.06.06.06.06.06.07.06.06.06.06.06.06.06.06.07.06.06.06.06.06.06.06.06.06.06.06.06.06.06.07.06.06.06.06.06.06.06.06.07.06.06.06.06.06.06.06.06.06.06.06.06.06.06.06.06.07.06.06.06.06.06.06h0L5.78,69.81v8.12h.06V78H5.9v.07H6v.07H6v.07h.06v.08l.06,0v.08l.06,0v.08h.06v.07h.06v.07h.06v.07h.06v.07h.07v.07h.06v.07h.06v.07h.06v.07h.06v.07h.06V79l.06,0V79l.06,0v.08H7v.07h.06v.07h.06v.07h.06v.07h.07v.07H7.3v.07h.06v.07h.06v.07h.06v.07h.06v.08l.06,0v.08h.06v.07h.06v.07h.06v.07h.06V80h.07v.07H8v.07H8v.07h.06v.07h.06v.07h.06v.07h.06v.08l.06,0v.08h.06v.07h.06v.07h.06v.07h.06v.07h.07v.07H8.7v.07h.06v.07h.06V81h.06V81h.06v.08l.06,0v.08l.06,0v.08h.06v.07h.06v.07h.06v.07H9.3v.07h.07v.07h.06v.07h.06v.07h.06v.07h.06v.07h.06v.08l.06,0v.08l.06,0V82h.06V82h.06v.07H10v.07H10v.07h.07v.07h.06v.07h.06v.07h.06v.07h.06v.07h.06v.08l.06,0v.08l.06,0v.08h.06v.07h.06v.07h.06v.07h.06v.07h.07V83h.06V83H11v.07H11v.07h.06v.07h.06v.08l.06,0v.08h.06v.07h.06v.07h.06v.07h.06v.07h.06v.07h.07v.07h.06v.07h.06v.07h.06v.07h.06V84h.06V84l.06,0v.08H12v.07H12v.07h.06v.07h.06v.07h.07v.07h.06v.07h.06v.07h.06v.07h.06v.07h.06v.08l.06,0v.08l.06,0v.08h.06v.07h.06v.07h.06V85h.06v.07H13v.07H13v.07h.06v.07h.06v.07h.06v.07h.06v.08l.06,0v.08l.06,0v.08h.06v.07h.06v.07h.06v.07h.06v.07h.07v.07h.06v.07h.06V86h.06V86h.06v.07H14v.08l.06,0v.08l.06,0v.08h.06v.07h.06v.07h.06v.07h.06v.07h.07v.07h.06v.07h.06v.07h.06v.07h.06v.07h.06v.08l.06,0v.08l.06,0V87h.06v.07H15v.07H15v.07h.06v.07h.07v.07h.06v.07h.06v.07h.06v.07h.06v.07h.06v.08l.06,0v.08h.06v.07h.06v.07h.06v.07h.06v.07h.07V88h.06V88h.06v.07H16v.07h.06v.07h.06v.08l.06,0v.08l.06,0v.08h.06v.07h.06v.07h.06v.07h.06v.07h.07v.07h.06v.07h.06v.07h.06v.07h.06v.07h.06V89l.06,0v.08l.06,0v.08H17v.07h.06v.07h.06v.07h.06v.07h.07v.07h.06v.07h.06v.07h.06v.07h.06v.07h.06v.08l.06,0v.08l.06,0v.08h.06v.07h.06V90h.06V90h.06v.07H18v.07l10.54-2V122.1c0,2.18.6,3.62,1.67,4.43l.06.06.06.06.06.06.06.06.06.06.06.06.06.06s0,0,.06.06,0,0,.06.06,0,.05.07.07,0,0,.06.06,0,0,.06.06,0,0,.06.06l.06.06.06.06.06.06.06.06.06.06.06.06s0,0,.06.06,0,.05.06.06,0,0,.07.07,0,0,.06.06,0,0,.06.06l.06.06.06.06.06.06.06.06.06.06s0,.05.06.06,0,.05.06.06,0,.05.06.06,0,.05.06.06,0,.05.07.07l.06.06s0,0,.06.06l.06.06.06.06.06.06.06.06.06.06.06.06.06.06s0,.05.06.06,0,.05.06.06l.07.07s0,0,.06.06,0,0,.06.06l.06.06.06.06.06.06.06.06.06.06s0,.05.06.06,0,.05.06.06,0,0,.06.06,0,0,.06.07,0,0,.07.06,0,0,.06.06,0,0,.06.06l.06.06.06.06.06.06.06.06.06.06s0,.05.06.06,0,.05.06.06,0,.05.06.06,0,.05.07.07,0,0,.06.06,0,0,.06.06l.06.06.06.06.06.06.06.06.06.06.06.06.06.06s0,0,.06.06l.06.06.07.07s0,0,.06.06,0,0,.06.06l.06.06.06.06.06.06.06.06.06.06s0,.05.06.06,0,.05.06.06,0,.05.06.06,0,.05.06.06,0,0,.07.07,0,0,.06.06,0,0,.06.06l.06.06.06.06.06.06.06.06.06.06.06.06s0,.05.06.06,0,.05.06.06,0,.05.06.06,0,.05.07.07,0,0,.06.06,0,0,.06.06l.06.06.06.06.06.06.06.06.06.06.06.06.06.06s0,0,.06.06,0,0,.07.07,0,0,.06.06,0,0,.06.06,0,0,.06.06l.06.06.06.06.06.06.06.06.06.06s0,.05.06.06,0,.05.06.06,0,.05.06.06,0,.05.07.07,0,0,.06.06,0,0,.06.06,0,0,.06.06l.06.06.06.06.06.06.06.06.06.06.06.06.06.06s0,.05.06.06l.07.07s0,0,.06.06,0,0,.06.06l.06.06.06.06.06.06.06.06.06.06s0,.05.06.06,0,.05.06.06l.06.06s0,0,.06.06,0,0,.07.07,0,0,.06.06,0,0,.06.06l.06.06.06.06.06.06.06.06.06.06s0,.05.06.06,0,.05.06.06,0,.05.06.06,0,.05.06.07,0,0,.07.06,0,0,.06.06,0,0,.06.06l.06.06.06.06.06.06.06.06.06.06.06.06.06.06s0,0,.06.06,0,0,.07.07,0,0,.06.06,0,0,.06.06,0,0,.06.06l.06.06.06.06.06.06.06.06.06.06s0,.05.06.06,0,.05.06.06,0,.05.06.06l.07.07s0,0,.06.06,0,0,.06.06,0,0,.06.06l.06.06.06.06.06.06.06.06.06.06s0,.05.06.06,0,.05.06.06,0,.05.06.06,0,.05.07.07,0,0,.06.06c1.06.85,2.62,1,4.54.68l9.38-1.77c-4.3,2.31-6,6.14-6,13.53,0,4.81.71,7.84,2.38,9.56l.06.06.06.06.06.07L53,161,53,161l.06.06.06.06.06.06.06.06.06.06s0,0,.06.06l.07.06.06.06.06.07.06.06.06.06.06.06.06.06.06.06.06.06L54,162,54,162l.06.06.07.06.06.06.06.07.06.06.06.06.06.06.06.06.06.06.06.06.06.06.06.06.07.06.06.06L55,163,55,163l.06.06.06.06.06.06.06.06.06.06.06.06.06.06.06.06.07.06.06.06.06.06.06.07.06.06.06.06.06.06L56,164l.06.06.06.06.06.06.06.06.07.06.06.06.06.06.06.07.06.06.06.06.06.06.06.06.06.06.06.06.06.06L57,165,57,165l.06.06.06.07.06.06.06.06.06.06.06.06.06.06.06.06.06.06.06.06.07.06s0,0,.06.06l.06.06.06.06.06.07L58,166l.06.06.06.06.06.06.06.06.06.06.06.06.07.06s0,0,.06.06l.06.06.06.07.06.06.06.06.06.06.06.06.06.06L59,167,59,167l.06.06.07.06.06.06.06.06.06.07.06.06.06.06.06.06.06.06.06.06.06.06.06.06.06.06.07.06.06.06L60,168l.06.07.06.06.06.06.06.06.06.06.06.06.06.06.06.06.06.06.07.06.06.06.06.06.06.07.06.06.06.06L61,169,61,169l.06.06.06.06.06.06.07.06s0,0,.06.06l.06.06.06.07.06.06.06.06.06.06.06.06.06.06.06.06.06.06L62,170,62,170s0,0,.06.06l.06.06.06.07.06.06.06.06.06.06.06.06.06.06.06.06.06.06.06.06.07.06.06.06.06.06.06.07L63,171l.06.06.06.06.06.06.06.06.06.06.06.06.06.06.07.06.06.06.06.06.06.07.06.06.06.06.06.06.06.06L64,172,64,172l.06.06.06.06.07.06.06.06.06.06.06.07.06.06.06.06.06.06.06.06.06.06.06.06.06.06.06.06c2.11,2.25,5.79,2.34,11.58,1.25,9.08-1.71,13-4.38,13.73-12.52l0,.05.06.06.06.06.07.06.06.06.06.06.06.06.06.06.06.06.06.07.06.06.06.06.06.06.06.06.06.06.07.06s0,0,.06.06l.06.06.06.06a.34.34,0,0,0,.06.06l.06.07.06.06.06.06.06.06.06.06.06.06.06.06.07.06.06.06.06.06.06.06.06.06.06.07.06.06.06.06.06.06.06.06.06.06.07.06.06.06.06.06.06.06.06.06.06.06.06.06.06.07.06.06.06.06.06.06.06.06s.05,0,.06.06l.07.06s0,0,.06.06l.06.06.06.06.06.06.06.07a.34.34,0,0,1,.06.06l.06.06.06.06.06.06.06.06.07.06s0,0,.06.06l.06.06.06.06.06.06.06.06.06.07.06.06.06.06.06.06.06.06.06.06.07.06.06.06.06.06.06.06.06.06.06.07.06.06.06.06.06.06.06.06.06.06.06.06.07.06s0,0,.06.06c2,2.26,5.55,2.54,10.34,1.64,6.72-1.27,11-4,12-9.9l0,0s0,0,.06.06l.06.06.06.06.06.06.06.06.06.06s0,.05.07.06,0,.05.06.06,0,.05.06.06,0,.05.06.06l.06.07s0,0,.06.06,0,0,.06.06l.06.06.06.06.06.06.06.06a.34.34,0,0,1,.06.06s0,0,.07.06,0,0,.06.06,0,.05.06.06l.06.07s0,0,.06.06,0,0,.06.06l.06.06.06.06.06.06.06.06.06.06.06.06s0,.05.07.06,0,0,.06.06,0,0,.06.06l.06.07s0,0,.06.06,0,0,.06.06l.06.06.06.06.06.06.06.06.06.06.06.06s0,.05.07.06,0,.05.06.06,0,.05.06.06l.06.07.06.06.06.06.06.06.06.06.06.06.06.06a.34.34,0,0,1,.06.06s0,0,.06.06,0,0,.07.06,0,0,.06.06,0,0,.06.06l.06.07s0,0,.06.06,0,0,.06.06l.06.06.06.06.06.06.06.06.06.06s0,.05.07.06,0,.05.06.06,0,.05.06.06,0,0,.06.07,0,0,.06.06,0,0,.06.06,0,0,.06.06l.06.06.06.06.06.06.06.06a.34.34,0,0,1,.06.06s0,.05.07.06,0,.05.06.06,0,.05.06.06l.06.07.06.06.06.06.06.06.06.06.06.06.06.06a3.52,3.52,0,0,0,3,.46l10.83-2c5.92-1.11,8.62-4.32,9.71-8.79h0s0,.05.06.06,0,.05.06.06,0,.05.06.06,0,.05.06.06,0,.05.07.07,0,0,.06.06,0,0,.06.06l.06.06.06.06.06.06.06.06.06.06.06.06.06.06s0,0,.06.06,0,0,.07.06,0,0,.06.07,0,0,.06.06,0,0,.06.06l.06.06.06.06.06.06.06.06.06.06s0,.05.06.06,0,.05.06.06,0,.05.06.06,0,.05.06.07,0,0,.07.06l.06.06.06.06.06.06.06.06.06.06.06.06.06.06s0,0,.06.06,0,.05.06.06,0,.05.06.06,0,.05.06.06,0,.05.07.07,0,0,.06.06,0,0,.06.06l.06.06.06.06.06.06.06.06.06.06.06.06.06.06s0,0,.06.06,0,0,.07.07l.06.06s0,0,.06.06,0,0,.06.06l.06.06.06.06.06.06.06.06.06.06s0,.05.06.06,0,.05.06.06,0,.05.06.06,0,.05.07.07,0,0,.06.06l.06.06.06.06.06.06.06.06.06.06.06.06.06.06.06.06s0,0,.06.06,0,.05.06.06l.07.07s0,0,.06.06,0,0,.06.06l.06.06.06.06.06.06.06.06a3.52,3.52,0,0,0,2.95.46l14-2.64c5.3-1,6.57-4,6.57-8.48a10.92,10.92,0,0,0-.19-2.16h0l.06.06.06.06.06.06.06.06.06.06.06.06.06.06.07.07s0,0,.06.06l.06.06.06.06.06.06.06.06.06.06.06.06.06.06.06.06.06.06.06.06s0,0,.07.07,0,0,.06.06l.06.06.06.06.06.06.06.06.06.06.06.06.06.06.06.06.06.06.06.06s.05,0,.07.07l.06.06.06.06.06.06.06.06.06.06.06.06.06.06.06.06.06.06.06.06a.34.34,0,0,0,.06.06l.07.07.06.06.06.06.06.06.06.06.06.06.06.06.06.06.06.06.06.06.06.06s.05,0,.06.06a.46.46,0,0,0,.07.07l.06.06.06.06.06.06.06.06.06.06.06.06.06.06.06.06.06.06.06.06.07.07.06.06.06.06.06.06.06.06.06.06.06.06.06.06.06.06.06.06.06.06.06.06s0,0,.07.07,0,0,.06.06l.06.06.06.06.06.06.06.06.06.06.06.06.06.06c2.11,2.25,5.78,2.34,11.58,1.25s9.63-2.65,11.71-5.83h0l0,.08.12,0-.06.08.12,0-.06.08.12,0-.06.08.12,0-.06.08.12,0-.06.08.12,0L204,147l.12,0L204,147l.11,0-.05.09.11,0-.05.08.11,0-.05.08.11,0-.05.08.11,0,0,.08.12,0-.06.08.12,0-.06.08.12,0-.06.08.12,0-.06.08.12,0-.06.09.12,0-.06.09.12,0,0,.09.11,0,0,.08.11,0-.05.08.11,0-.05.08.11,0L205,148l.11,0-.05.08.12,0-.06.08.12,0-.06.08.12,0-.06.08.12,0-.06.08.12,0-.06.09.12,0-.05.09.11,0-.05.09.11,0-.05.08.11,0,0,.08.11,0,0,.08.11,0,0,.08.11,0,0,.08.12,0-.06.08.12,0-.06.08.12,0L206,149l.12,0L206,149l.12,0-.06.09.12,0-.05.09.11,0-.05.09.11,0-.05.08.11,0-.05.08,8-1.51,5.26-8.67h0l0,.06h0l0,.06h0l0,.07h0l0,.07h0l0,.07h0l0,.06h0l0,.06h0l0,.06h0l0,.06h0l.05.06h0l.05.06h0l.05.06h0l.05.06h0l.05.07h0l.05.07h0l0,.07h0l.05.07h0l.05.06h0l.05.06h0l.05.06h0l0,.06h0l0,.06h0l0,.06h0l0,.06h0l0,.06h0l.05.07h0l.05.07h0l0,.07h0l0,.07h0l.05.06h0l.05.06h0l.05.06h0l.05.06h0l.05.06h0l.05.06h0l.05.06h0l.05.06h0l0,.07h0l0,.07h0l.05.07h0l.05.06h0l0,.06h0l0,.06h0l0,.06h0l0,.06h0l0,.06h0l.05.06h0l.05.06h0l.05.06h0l.05.07h0l.05.07h0l.05.07h0l.05.06h0l.05.06h0l.05.06h0l.05.06h0l.05.06h0l0,.06h0l0,.06h0l0,.06h0l0,.06h0l0,.07h0l0,.07h0l0,.07h0l0,.06h0l0,.06h0l.05.06h0l.05.06h0l.05.06h0l.05.06h0l.05.06h0l.05.06h0l.05.07h0l.05.07h0l0,.07h0l.05.07h0l.05.06h0l.05.06h0l0,.06h0l0,.06h0l0,.06h0l0,.06h0l0,.06h0l.05.06h0l.05.07h0l.05.07h0l0,.07h0l.05.07h0l.05.06h0l.05.06h0l.05.06h0l.05.06h0l.05.06h0l.05.06h0l0,.06h0l0,.06h0l0,.07h0l0,.07h0l0,.07h0l0,.06h0l0,.06h0l0,.06h0l0,.06h0l.05.06h0l.05.06h0l.05.06ZM47.63,60.83l0,0-.06-.06-.06-.06-.07-.06-.06-.06s0-.05-.06-.06l-.06-.07-.06-.06-.06-.06-.06-.06L47,60.19l-.06-.06-.06-.06L46.81,60,46.75,60l-.07-.06-.06-.06-.06-.06-.06-.07-.06-.06-.06-.06-.06-.06-.06-.06-.06-.06-.06-.06-.06-.06L46,59.22,46,59.16l-.06-.06s0-.05-.06-.06L45.77,59l-.06-.06-.06-.06-.06-.06-.06-.06-.06-.06-.06-.06-.06-.06-.07-.06-.06-.06-.06-.06-.06-.06L45,58.24,45,58.18l-.06-.06-.06-.06L44.8,58l-.06-.06-.06-.06-.06-.06-.07-.06a.34.34,0,0,0-.06-.06s0-.05-.06-.06l-.06-.07-.06-.06-.06-.06-.06-.06-.06-.06-.06-.06L44,57.21,44,57.15l-.06-.06L43.82,57,43.76,57l-.06-.06-.06-.07-.06-.06-.06-.06-.06-.06-.06-.06-.06-.06-.06-.06-.06-.06-.07-.06-.06-.06L43,56.24s0-.05-.06-.06l-.06-.07-.06-.06L42.79,56l-.06-.06-.06-.06-.06-.06-.06-.06-.06-.06-.07-.06-.06-.06-.06-.06-.06-.06-.06-.07-.06-.06-.06-.06L42,55.2l-.06-.06-.06-.06L41.82,55,41.76,55l-.07-.06-.06-.06-.06-.06-.06-.07-.06-.06s0,0-.06-.06l-.06-.06-.06-.06-.06-.06-.06-.06-.06-.06a.34.34,0,0,1-.06-.06L41,54.17l-.06-.06-.06-.06L40.78,54s0,0-.06-.06l-.06-.06-.06-.06-.06-.06-.06-.06-.06-.06-.06-.06-.07-.06,0,0,6.53-1.23V54.7A20.14,20.14,0,0,0,47.63,60.83ZM171.4,93.69c.31-7.64,2.69-10.89,9.51-12.49C180.59,88.84,178.22,92.1,171.4,93.69Zm-76,3.63c-.32,7.64-2.69,10.9-9.51,12.5C86.17,102.18,88.54,98.92,95.37,97.32Zm1.36,33.14c.82-.15,1.6-.32,2.36-.49V141.9h0v-.07H99v-.07H99v-.07H98.9v-.07h-.06v-.07h-.06v-.07h-.06v-.07h-.06v-.08l-.06,0v-.08h-.06v-.07h-.07v-.07h-.06v-.07h-.06v-.07h-.06V141h-.06V141h-.06v-.07h-.06v-.07h-.06v-.07H98v-.08l-.06,0v-.08l-.06,0v-.08H97.8v-.07h-.06v-.07h-.06v-.07h-.06v-.07h-.06v-.07H97.5v-.07h-.06v-.07h-.06v-.07h-.06v-.07h-.06V140l-.06,0v-.08l-.06,0v-.08h-.07v-.07H97v-.07H97v-.07h-.06v-.07h-.06v-.07h-.06v-.07h-.06v-.07h-.06v-.07h-.06v-.07h-.06v-.08l-.06,0v-.08l-.06,0v-.08h-.07v-.07h-.06V139h-.06V139h-.06v-.07H96.1v-.07H96v-.07H96v-.07h-.06v-.07h-.06v-.07H95.8v-.08l-.06,0v-.08l-.06,0v-.08h-.07v-.07h-.06v-.07h-.06v-.07h-.06v-.07h-.06v-.07h-.06v-.07h-.06V138h-.06v-.07h-.06v-.08l-.06,0v-.08l-.06,0v-.08H95v-.07h-.07v-.07h-.06v-.07h-.06v-.07H94.7v-.07h-.06v-.07h-.06v-.07h-.06v-.07h-.06v-.07H94.4v-.07h-.06v-.08l-.06,0V137h-.06V137h-.07v-.07h-.06v-.07H94v-.07H94v-.07h-.06v-.07h-.06v-.07h-.06v-.07h-.06v-.07h-.06v-.08l-.06,0v-.08l-.06,0v-.08h-.07v-.07h-.06v-.07h-.06v-.07H93.3v-.07h-.06V136h-.06v-.07h-.06v-.07h-.06v-.07H93v-.07h-.06v-.08l-.06,0v-.08l-.06,0v-.08h-.07v-.07h-.06v-.07h-.06v-.07h-.06v-.07h-.06v-.07h-.06v-.07h-.06v-.07h-.06v-.07h-.06V135h-.06V135l-.06,0v-.08l-.06,0v-.08H92v-.07H92v-.07H91.9v-.07h-.06v-.07h-.06v-.07h-.06v-.07h-.06v-.07H91.6v-.07h-.06v-.07h-.06v-.08l-.06,0v-.08h-.06v-.07h-.07V134h-.06V134h-.06v-.07h-.06v-.07h-.06v-.07H91v-.07h-.06v-.07h-.06v-.07h-.06v-.07h-.06v-.08l-.06,0v-.08h-.06v-.07h-.07v-.07H90.5v-.07h-.06v-.07h-.06v-.07h-.06v-.07h-.06V133H90.2V133h-.06v-.07h-.06v-.08l-.06,0v-.08l-.06,0v-.08h-.07v-.07h-.06v-.07h-.06v-.07h-.06v-.07h-.06v-.07h-.06v-.07h-.06v-.07h-.06v-.07h-.06v-.07h-.06v-.08l-.06,0V132l-.06,0V132h-.07v-.07H89.1v-.07H89v-.07H89v-.07h-.06v-.07h-.06v-.07H88.8v-.07h-.06v-.07A57.6,57.6,0,0,0,96.73,130.46Zm10.53-49.19v.07h.06v.07h.06v.07h.06v.07h.06v.07h.06v.07h.07v.07h.06v.08l.06,0v.08h.06v.07h.06V82h.06V82H108v.07h.06v.07h.06v.07h.06v.07h.06v.07h.07v.07h.06v.07h.06v.08l.06,0v.08h.06v.07h.06v.07h.06v.07h.06v.07h.06v.07h.06v.07h.06V83H109V83H109v.07h.06v.08l.06,0v.08l.06,0v.08h.06v.07h.06v.07h.06v.07h.06v.07h.06v.07h.06v.07h.06v.07h.06v.07h.07v.07h.06v.08l.06,0V84l.06,0V84H110v.07h.06v.07h.06v.07h.06v.07h.06v.07h.06v.07h.06v.07h.06v.07h.07v.07h.06v.08l.06,0v.08l.06,0v.08h.06v.07h.06v.07h.06v.07h.06V85H111v.07H111v.07h.06v.07h.06v.07h.07v.07h.06v.08l.06,0v.08l.06,0v.08h.06v.07h.06v.07h.06v.07h.06v.07h.06v.07h.06v.07h.06v.07h.07V86H112V86H112v.08l.06,0v.08h.06v.07h.06v.07h.06v.07h.06v.07h.06v.07h.06v.07h.06v.07h.06v.07h.07v.07h.06v.08l.06,0v.08l.06,0v.08h.06v.07h.06V87H113v.07H113v.07h.06v.07h.06v.07h.06v.07h.06v.07h.07v.07h.06v.08l.06,0v.08l.06,0v.08h.06v.07h.06v.07h.06v.07h.06v.07h.06v.07h.06V88H114V88H114v.07h.07v.07h.06v.08l.06,0v.08l.06,0v.08h.06v.07h.06v.07h.06v.07h.06v.07h.06v.07h.06v.07h.06v.07h.06v.07h.07v.07h.06V89l.06,0V89l.06,0v.08h.06v.07h.06v.07h.06v.07h.06v.07h.06v.07h.06v.07h.06v.07h.06v.07h.07v.07h.06v.08l.06,0v.08h.06v.07h.06v.07h.06v.07h.06V90H116V90H116v.07h.06v.07h.06v.07h.07v.07h.06v.07h.06v.08l.06,0v.08h.06v.07h.06v.07h.06v.07h.06v.07h.06v.07h.06v.07h.06v.07h.06V91h.07V91H117v.08l.06,0v.08l.06,0v.08h.06v.07h.06v.07h.06v.07h.06v.07h.06v.07h.06v.07h.06v.07h.06v.07h.07v.07h.06v.08l.06,0v.08l.06,0v.08h.06V92H118v.07H118v.07h.06v.07h.06v.07h.06v.07h.06v.07h.06v.07h.07v.07h.06v.08l.06,0v.08l.06,0v.08h.06v.07h.06v.07h.06v.07h.06v.07h.06V93h.06V93H119v.07h.06v.07h.07v.08l.06,0v.08l2.85-.54v18h.07v.07h.06v.07h.06v.07h.06v.07h.06V111h.06v.07h.06v.07h.06v.08l.06,0v.08h.06v.07h.06v.07h.06v.07h.07v.07h.06v.07H123v.07H123v.07h.06v.07h.06v.07h.06v.08l.06,0v.08l.06,0V112h.06V112h.06v.07h.06v.07h.07v.07h.06v.07h.06v.07h.06v.07h.06v.07h.06v.07h.06v.08l.06,0v.08l.06,0v.08h.06v.07h.06v.07h.06v.07h.07v.07h.06V113h.06v.07h.06v.07h.06v.07h.06v.07h.06v.08l.06,0v.08l.06,0v.08h.06v.07h.06v.07H125v.07H125v.07h.06v.07h.06v.07h.06v.07h.06v.07h.06V114h.06V114l.06,0v.08h.06v.07h.06v.07h.06v.07h.06v.07h.07v.07h.06v.07h.06v.07h.06v.07H126v.07h.06v.07h.06v.08l.06,0v.08l.06,0v.08h.06V115h.06V115h.07v.07h.06v.07h.06v.07h.06v.07h.06v.07h.06v.07h.06v.07h.06v.08l.06,0v.08H127v.07H127v.07h.06v.07h.07v.07h.06v.07h.06v.07h.06V116h.06V116h.06v.07h.06v.08l.06,0v.08l.06,0v.08h.06v.07h.06v.07h.06v.07h.07v.07H128v.07H128v.07h.06v.07h.06v.07h.06v.07h.06v.08l.06,0V117l.06,0V117h.06v.07h.06v.07h.06v.07h.07v.07h.06v.07h.06v.07h.06v.07h.06v.07h.06v.07H129v.08l.06,0v.08l.06,0v.08h.06v.07h.06v.07h.06v.07h.07V118h.06v.07h.06v.07h.06v.07h.06v.07h.06v.07h.06v.08l.06,0v.08l.06,0v.08h.06v.07H130v.07H130v.07h.06v.07h.06v.07h.06v.07h.06v.07h.06V119h.06V119l.06,0v.08l.06,0v.08h.06v.07h.06v.07h.06v.07h.07v.07h.06v.07h.06v.07h.06v.07H131v.07h.06v.07h.06v.07h.06v.08l.06,0v.08h.06v.07h.06V120h.06v.07h.07v.07h.06v.07h.06v.07h.06v.07h.06v.07h.06v.07h.06v.08l.06,0v.08l.06,0v.08H132v.07h.06v.07h.06v.07h.07v.07h.06v.07h.06V121h.06V121h.06v.07h.06v.07h.06v.08l.06,0v.08l.06,0v.08h.06v.07h.06v.07h.06v.07h.07v.07H133v.07h.06v.07h.06v.07h.06v.07h.06v.07h.06V122l.06,0V122l.06,0v.08h.06v.07h.06v.07h.06v.07h.07v.07h.06v.07h.06v.07h.06v.07h.06v.07H134v.07H134v.08l.06,0v.08h.06v.07h.06v.07h.06v.07l5.61-1.06a4.57,4.57,0,0,0-1.47,3.64v6l-.06-.06-.06-.06-.06-.06-.06-.06-.06-.06-.06-.06s0,0-.07-.06l-.06-.07-.06-.06-.06-.06-.06-.06-.06-.06-.06-.06-.06-.06-.06-.06-.06-.06-.06-.06-.06-.06s0-.05-.07-.06l-.06-.07-.06-.06-.06-.06-.06-.06-.06-.06-.06-.06-.06-.06-.06-.06-.06-.06-.06-.06s0-.05-.06-.06l-.07-.07s0,0-.06-.06l-.06-.06-.06-.06-.06-.06-.06-.06-.06-.06-.06-.06-.06-.06-.06-.06-.06-.06s0,0-.07-.06,0,0-.06-.07l-.06-.06-.06-.06-.06-.06-.06-.06-.06-.06-.06-.06-.06-.06-.06-.06-.06-.06-.06-.06s0-.05-.07-.06,0-.05-.06-.07l-.06-.06-.06-.06-.06-.06-.06-.06-.06-.06-.06-.06-.06-.06-.06-.06-.06-.06-.06-.06-.07-.07-.06-.06-.06-.06-.06-.06-.06-.06-.06-.06-.06-.06-.06-.06-.06-.06-.06-.06-.06-.06-.06-.06s0,0-.07-.06l-.06-.07-.06-.06-.06-.06-.06-.06-.06-.06-.06-.06-.06-.06-.06-.06-.06-.06-.06-.06s0-.05-.07-.06,0-.05-.06-.07l-.06-.06-.06-.06-.06-.06-.06-.06-.06-.06-.06-.06-.06-.06-.06-.06-.06-.06c-1.63-1.54-4.16-2.12-8-1.39l-10.49,2a4.43,4.43,0,0,0-4,4.77v.89h0v-.08h-.06v-.07h-.06v-.07h-.06v-.07h-.06v-.07h-.06v-.07h-.06v-.07h-.06v-.07h-.07v-.07h-.06v-.07h-.06v-.07h-.06V131l-.06,0V131l-.06,0v-.08H109v-.07H109v-.07h-.06v-.07h-.06v-.07h-.06v-.07h-.06v-.07h-.07v-.07h-.06v-.07h-.06v-.08l-.06,0v-.08l-.06,0v-.08h-.06v-.07h-.06v-.07h-.06v-.07h-.06V130h-.06v-.07h-.06v-.07H108v-.07h-.06v-.07h-.06v-.07h-.06v-.08l-.06,0v-.08l-.06,0v-.08h-.06v-.07h-.06v-.07h-.06v-.07h-.06v-.07h-.06v-.07h-.06v-.07h-.07v-.07h-.06V129h-.06V129h-.06v-.08l-.06,0v-.08l-.06,0v-.08h-.06v-.07h-.06v-.07h-.06v-.07h-.06v-.07h-.06v-.07h-.06v-.07h-.07v-.07h-.06v-.07h-.06v-.07h-.06v-.08l-.06,0v-.08h-.06V128h-.06V128h-.06v0c8.83-3.4,12.19-9.29,12.19-22.34,0-7.44-1.09-12.14-3.67-14.83l-.06-.06-.06-.06-.06-.06-.06-.06-.07-.06s0,0-.06-.07l-.06-.06-.06-.06-.06-.06-.06-.06-.06-.06-.06-.06-.06-.06-.06-.06-.06-.06-.06-.06-.07-.06-.06-.07-.06-.06-.06-.06-.06-.06-.06-.06-.06-.06-.06-.06-.06-.06-.06-.06-.06-.06-.06-.06s0,0-.07-.06l-.06-.07-.06-.06-.06-.06-.06-.06-.06-.06-.06-.06-.06-.06-.06-.06-.06-.06-.06-.06-.06-.06s0,0-.07-.07l-.06-.06-.06-.06-.06-.06-.06-.06-.06-.06-.06-.06-.06-.06-.06-.06-.06-.06-.06-.06-.06-.06-.07-.07-.06-.06-.06-.06-.06-.06-.06-.06-.06-.06-.06-.06-.06-.06-.06-.06-.06-.06-.06-.06-.06-.06s0,0-.07-.07l-.06-.06-.06-.06-.06-.06-.06-.06-.06-.06-.06-.06-.06-.06-.06-.06-.06-.06-.06-.06-.07-.06s0,0-.06-.07l-.06-.06-.06-.06-.06-.06-.06-.06-.06-.06-.06-.06-.06-.06-.06-.06-.06-.06-.06-.06s0,0-.07-.06l-.06-.07-.06-.06-.06-.06-.06-.06-.06-.06-.06-.06-.06-.06L108.8,85l-.06-.06-.06-.06-.06-.06s-.05,0-.07-.07l-.06-.06-.06-.06-.06-.06-.06-.06-.06-.06-.06-.06-.06-.06-.06-.06-.06-.06L108,84.1l-.06-.06s0,0-.07-.07l-.06-.06-.06-.06-.06-.06-.06-.06-.06-.06-.06-.06-.06-.06-.06-.06-.06-.06-.06-.06-.06-.06s0,0-.07-.07l-.06-.06-.06-.06-.06-.06-.06-.06-.06-.06-.06-.06-.06-.06-.06-.06-.06-.06-.06-.06-.07-.06s0,0-.06-.07l-.06-.06-.06-.06-.06-.06-.06-.06-.06-.06-.06-.06-.06-.06-.06-.06-.06-.06-.06-.06s-.05,0-.07-.06,0,0-.06-.07l-.06-.06-.06-.06-.06-.06-.06-.06-.06-.06-.06-.06-.06-.06-.06-.06-.06-.06-.06-.06s0,0-.07-.06l-.06-.07-.06-.06-.06-.06-.06-.06-.06-.06-.06-.06-.06-.06-.06-.06-.06-.06-.06-.06-.06-.06s0,0-.07-.07l-.06-.06-.06-.06-.06-.06-.06-.06-.06-.06-.06-.06-.06-.06-.06-.06-.06-.06-.06-.06-.06-.06s0,0-.07-.07l-.06-.06-.06-.06-.06-.06-.06-.06-.06-.06-.06-.06-.06-.06-.06-.06-.06-.06-.06-.06s-.05,0-.06-.06l-.07-.07-.06-.06-.06-.06-.06-.06-.06-.06-.06-.06c-2.84-3-7.53-3.53-14.61-2.5a15.57,15.57,0,0,0,8-9.4H96v.07H96v.07h.06v.07h.06V67h.06V67h.06v.08l.06,0v.08l.06,0v.08h.06v.07h.06v.07h.06v.07h.06v.07h.06v.07h.07v.07h.06v.07h.06v.07h.06v.07H97v.08l.06,0v.08l.06,0V68h.06V68h.06v.07h.06v.07h.06v.07h.07v.07h.06v.07h.06v.07h.06v.07h.06v.07h.06v.08l.06,0v.08l.06,0v.08h.06v.07H98v.07H98v.07h.06v.07h.07V69h.06V69h.06v.07h.06v.07h.06v.07h.06v.08l.06,0v.08h.06v.07h.06v.07h.06v.07h.06v.07h.06v.07h.07v.07h.06v.07H99v.07h.06v.07h.06V70h.06V70l.06,0v.08h.06v.07h.06v.07h.06v.07h.06v.07h.06v.07h.07v.07h.06v.07h.06v.07h.06v.07h.06v.08l.06,0v.08l.06,0v.08H100v.07h.06v.07h.06V71h.06v.07h.06v.07h.07v.07h.06v.07h.06v.07h.06v.07h.06v.08l.06,0v.08l.06,0v.08h.06v.07h.06v.07h.06v.07h.06v.07H101v.07h.06v.07h.06V72h.06V72h.06v.07h.06v.08l.06,0v.08l.06,0v.08h.06v.07h.06v.07h.06v.07h.06v.07h.07v.07h.06v.07h.06v.07h.06v.07H102v.07H102v.08l.06,0v.08l.06,0V73h.06v.07h.06v.07h.06v.07h.06v.07h.07v.07h.06v.07h.06v.07h.06v.07h.06v.07h.06v.08l.06,0v.08h.06v.07H103v.07H103v.07h.06v.07h.06V74h.07V74h.06v.07l3.7-.69V81l.06,0v.08l.06,0v.08h.06v.07h.06v.07ZM88.72,131.49h0Zm77.44-7.3-.06,0-.06-.07L166,124l-.06-.06-.06-.06-.07-.06-.06-.06-.06-.06-.06-.06-.06-.06-.06-.06-.06-.06-.06-.07-.06-.06-.06-.06-.06-.06-.06-.06-.07-.06L165,123l-.06-.06-.06-.06-.06-.06-.06-.06s0,0-.06-.06l-.06-.07-.06-.06-.06-.06-.06-.06-.06-.06-.07-.06-.06-.06-.06-.06-.06-.06-.06-.06-.06-.06s0,0-.06-.06l-.06-.07-.06-.06-.06-.06-.06-.06-.06-.06-.07-.06-.06-.06-.06-.06-.06-.06-.06-.06-.06-.06-.06-.06-.06-.07-.06-.06-.06-.06L163,121l-.07-.06-.06-.06-.06-.06-.06-.06-.06-.06-.06-.06-.06-.06s0,0-.06-.06l-.06-.07-.06-.06-.06-.06-.06-.06-.07-.06a.34.34,0,0,0-.06-.06l-.06-.06-.06-.06L162,120l-.06-.06s0,0-.06-.06,0,0-.06-.06l-.06-.07-.06-.06-.06-.06-.06-.06-.07-.06-.06-.06-.06-.06-.06-.06-.06-.06-.06-.06-.06-.06-.06-.07L161,119c-1.05-1-2.67-1.3-5-.87l-11.31,2.13V88.45l3.77-.71c.22,6.12,1.34,10.12,3.64,12.51l.06.06.06.06.06.06.06.06.06.07.06.06.06.06.06.06.06.06.06.06.06.06.07.06.06.06.06.06.06.06.06.06.06.07.06.06.06.06.06.06.06.06.06.06.06.06.07.06.06.06.06.06.06.06.06.06.06.07.06.06.06.06.06.06.06.06.06.06.07.06.06.06.06.06.06.06.06.06.06.06.06.07.06.06.06.06.06.06.06.06.06.06.07.06.06.06.06.06.06.06.06.06.06.07a.34.34,0,0,1,.06.06l.06.06.06.06.06.06.06.06.06.06.07.06.06.06.06.06.06.06.06.06.06.07.06,0,.06.07.06.06.06.06.06.06.06.06.07.06.06.06.06.06.06.06.06.06.06.06.06.07.06.06.06.06.06.06.06.06.06.06.07.06.06.06.06.06.06.06.06.06.06.06.06.07.06.06.06.06.06.06.06.06.07.06.06.06.06.06.06.06.06.06.06.06a.34.34,0,0,0,.06.06l.06.07.06.06.06.06.06.06.06.06.07.06s0,0,.06.06l.06.06.06.06.06.06.06.06.06.07.06.06.06.06.06.06.06.06.06.06.06.06.07.06.06.06.06.06.06.06.06.06.06.07.06.06.06.06.06.06.06.06.06.06s.05,0,.06.06l.07.06.06.06.06.06.06.06.06.06.06.07.06.06.06.06.06.06.06.06.06.06.07.06s0,0,.06.06l.06.06.06.06.06.06.06.06.06.07.06.06.06.06.06.06.06.06.07.06s0,0,.06.06l.06.06.06.06.06.06.06.06a.34.34,0,0,0,.06.06l.06.07.06.06.06.06.06.06.06.06.06.06.07.06.06.06.06.06.06.06.06.06.06.07.06.06.06.06.06.06.06.06.06.06s0,0,.06.06l.07.06.06.06.06.06.06.06.06.06.06.07.06.06.06.06.06.06.06.06.06.06s.05,0,.06.06l.07.06.06.06.06.06.06.06a.34.34,0,0,0,.06.06l.06.07.06.06.06.06.06.06.06.06.06.06c1.92,2,4.68,2.92,8.44,3C169,117.07,166.93,119.66,166.16,124.19ZM151.88,69.58h0v-.08h-.06v-.07h-.06v-.07h-.06v-.07h-.07v-.07h-.06v-.07h-.06v-.07h-.06v-.07h-.06V69h-.06V69h-.06V68.9l-.06,0v-.08l-.06,0v-.08h-.06v-.07H151v-.07h-.07V68.6h-.06v-.07h-.06v-.07h-.06v-.07h-.06v-.07h-.06V68.3h-.06v-.07h-.06v-.08l-.06,0v-.08l-.06,0v-.08h-.06V68h-.06v-.07h-.07v-.07h-.06v-.07h-.06v-.07H150v-.07H150v-.07h-.06v-.07h-.06v-.07h-.06v-.08l-.06,0v-.08l-.06,0v-.08h-.06v-.07h-.06V67.2h-.07v-.07h-.06v-.07h-.06V67h-.06V67h-.06V66.9h-.06v-.07h-.06v-.07H149v-.08l-.06,0v-.08l-.06,0v-.08h-.06v-.07h-.06v-.07h-.07v-.07h-.06v-.07h-.06v-.07h-.06v-.07h-.06v-.07h-.06v-.07h-.06V66l-.06,0V66l-.06,0v-.08h-.06v-.07h-.06V65.8h-.06v-.07H148v-.07h-.06v-.07h-.06v-.07h-.06V65.5h-.06v-.07h-.06v-.07h-.06v-.07h-.06v-.08L113.7,71.64V59.12L131,55.87a14.23,14.23,0,0,0,6.53-2.82l0,0,.06.06.06.06.06.06.06.06.06.06s0,.05.06.06l.07.07s0,0,.06.06,0,0,.06.06,0,0,.06.06l.06.06.06.06.06.06.06.06.06.06s0,.05.06.06,0,.05.06.06,0,0,.06.06l.07.07s0,0,.06.06l.06.06.06.06.06.06.06.06.06.06.06.06.06.06s0,0,.06.06,0,0,.06.06,0,.05.06.06,0,0,.07.07,0,0,.06.06,0,0,.06.06l.06.06.06.06.06.06.06.06.06.06.06.06.06.06.06.06s0,0,.06.07,0,0,.07.06,0,0,.06.06,0,0,.06.06l.06.06.06.06.06.06.06.06.06.06s0,0,.06.06,0,0,.06.06,0,.05.06.06,0,.05.06.07,0,0,.07.06l.06.06s0,0,.06.06l.06.06.06.06.06.06.06.06.06.06.06.06s0,.05.06.06,0,0,.06.06,0,0,.06.07,0,0,.07.06,0,0,.06.06,0,0,.06.06l.06.06.06.06.06.06.06.06s0,.05.06.06,0,0,.06.06l.06.06.06.06.07.07.06.06s0,0,.06.06,0,0,.06.06l.06.06.06.06.06.06.06.06.06.06s0,.05.06.06,0,0,.06.06,0,0,.06.06,0,.05.07.07,0,0,.06.06,0,0,.06.06l.06.06.06.06.06.06.06.06.06.06.06.06.06.06s0,0,.06.06,0,.05.06.06,0,0,.07.07,0,0,.06.06,0,0,.06.06l.06.06.06.06.06.06.06.06.06.06s0,0,.06.06,0,.05.06.06,0,0,.06.06l.06.06.07.07.06.06.06.06.06.06.06.06.06.06.06.06.06.06s0,0,.06.06,0,0,.06.06,0,.05.06.06,0,0,.06.07,0,0,.07.06,0,0,.06.06,0,0,.06.06l.06.06.06.06.06.06.06.06.06.06.06.06.06.06s0,0,.06.06,0,0,.07.07,0,0,.06.06,0,0,.06.06,0,0,.06.06l.06.06.06.06.06.06.06.06s0,.05.06.06,0,0,.06.06,0,0,.06.06,0,.05.06.06l.07.07.06.06.06.06.06.06.06.06.06.06.06.06.06.06.06.06s0,.05.06.06,0,0,.06.06,0,0,.06.06,0,.05.07.07,0,0,.06.06,0,0,.06.06,0,0,.06.06l.06.06.06.06.06.06.06.06s0,.05.06.06l.06.06.06.06.06.06.07.07.06.06s0,0,.06.06l.06.06.06.06.06.06.06.06.06.06a5.53,5.53,0,0,0,4.55.69l6.61-1.25A16.7,16.7,0,0,0,151.88,69.58ZM44.82,85.11c6.9-1.3,9.28-6.1,9.28-12.55a17.5,17.5,0,0,0-.39-3.94v0l.06.06.07.06s0,0,.06.06l.06.06.06.06.06.06.06.06.06.07.06.06a.34.34,0,0,1,.06.06l.06.06.06.06s0,0,.06.06l.07.06s0,0,.06.06l.06.06.06.06.06.06a.34.34,0,0,0,.06.06l.06.06.06.07.06.06.06.06.06.06.06.06.07.06.06.06.06.06.06.06.06.06.06.06.06.07a.34.34,0,0,1,.06.06l.06.06.06.06.06.06.06.06L56,71l.06.06.06.06.06.06.06.06a.34.34,0,0,0,.06.06l.06.07.06.06.06.06.06.06.06.06s0,0,.06.06l.07.06s0,0,.06.06l.06.06.06.06.06.06a.34.34,0,0,0,.06.06.34.34,0,0,0,.06.06l.06.07.06.06.06.06.06.06s.05,0,.06.06l.07.06s0,0,.06.06l.06.06.06.06.06.06a.34.34,0,0,0,.06.06l.06.07.06.06.06.06L58,73l.06.06.07.06.06.06.06.06.06.06.06.06.06.06.06.06.06.07.06.06.06.06.06.06.06.06.07.06s0,0,.06.06l.06.06.06.06.06.06a.34.34,0,0,0,.06.06l.06.07a.34.34,0,0,1,.06.06l.06.06.06.06.06.06s0,0,.06.06l.07.06s0,0,.06.06l.06.06.06.06.06.06.06.06.06.06.06.07.06.06.06.06.06.06s.05,0,.06.06l.07.06s0,0,.06.06l.06.06.06.06.06.06.06.06.06.07a.34.34,0,0,1,.06.06l.06.06.06.06.06.06.07.06s0,0,.06.06l.06.06.06.06.06.06.06.06a.34.34,0,0,0,.06.06l.06.07a.34.34,0,0,1,.06.06l.06.06.06.06.06.06.07.06.06.06.06.06c2.41,2.73,6.31,3.58,11.42,3.17-7.48,3.52-10.39,9.48-10.39,21.56,0,7.46,1.09,12.17,3.67,14.85a.34.34,0,0,0,.06.06l.07.07.06.06.06.06.06.06.06.06.06.06.06.06.06.06.06.06.06.06.06.06s0,0,.07.07l.06.06.06.06.06.06.06.06.06.06.06.06.06.06.06.06.06.06.06.06.06.06a.34.34,0,0,0,.06.06l.07.07.06.06.06.06.06.06.06.06.06.06.06.06.06.06.06.06.06.06.06.07s0,0,.07.06l.06.06.06.06.06.06.06.06.06.06.06.06.06.06.06.06.06.06.06.06.06.06s0,0,.07.07l.06.06.06.06.06.06.06.06.06.06.06.06.06.06.06.06.06.06.06.06.06.06s0,0,.07.07l.06.06.06.06.06.06.06.06.06.06.06.06.06.06.06.06.06.06.06.06a.34.34,0,0,0,.06.06l.07.07.06.06.06.06.06.06.06.06.06.06.06.06.06.06.06.06.06.06.06.06s.05,0,.07.07,0,0,.06.06l.06.06.06.06.06.06.06.06.06.06.06.06.06.06.06.06.06.06.06.06s0,0,.07.07,0,0,.06.06l.06.06.06.06.06.06.06.06.06.06.06.06.06.06.06.06.06.06.06.06s0,0,.07.07l.06.06.06.06.06.06.06.06.06.06.06.06.06.06.06.06.06.06.06.06.06.06.07.07.06.06.06.06.06.06.06.06.06.06.06.06.06.06.06.06.06.06.06.06s.05,0,.06.07l.07.06.06.06.06.06.06.06.06.06.06.06.06.06.06.06.06.06.06.06.06.06s0,0,.07.07,0,0,.06.06l.06.06.06.06.06.06.06.06.06.06.06.06.06.06.06.06.06.06.06.06s0,0,.07.07l.06.06.06.06.06.06.06.06.06.06.06.06.06.06.06.06.06.06.06.06.06.06s0,0,.07.07l.06.06.06.06.06.06.06.06.06.06.06.06.06.06.06.06.06.06.06.06.06.06.07.07.06.06.06.06.06.06.06.06.06.06.06.06.06.06.06.06.06.06.06.06.06.06s0,0,.07.07l.06.06.06.06.06.06.06.06.06.06.06.06.06.06.06.06.06.06a10.09,10.09,0,0,0,6.81,2.89l-4.09.78v9.88h0l-.06-.06-.06-.06-.06-.06-.06-.06-.06-.06-.06-.06-.06-.07-.06-.06-.06-.06-.06-.06-.06-.06-.07-.06-.06-.06-.06-.06-.06-.06-.06-.06-.06-.06a.34.34,0,0,0-.06-.06l-.06-.07-.06-.06-.06-.06-.06-.06-.06-.06-.07-.06-.06-.06-.06-.06-.06-.06-.06-.06-.06-.06a.34.34,0,0,0-.06-.06l-.06-.07-.06-.06-.06-.06-.06-.06-.07-.06-.06-.06-.06-.06-.06-.06-.06-.06-.06-.06-.06-.06-.06-.07-.06-.06-.06-.06-.06-.06-.06-.06-.07-.06-.06-.06-.06-.06-.06-.06-.06-.06-.06-.06-.06-.06-.06-.07-.06-.06-.06-.06-.06-.06-.06-.06-.07-.06-.06-.06-.06-.06-.06-.06-.06-.06-.06-.06a.34.34,0,0,0-.06-.06l-.06-.07-.06-.06-.06-.06-.06-.06-.06-.06-.07-.06-.06-.06-.06-.06-.06-.06-.06-.06-.06-.06-.06-.06-.06-.07-.06-.06-.06-.06-.06-.06-.06-.06L76.4,137l-.06-.06-.06-.06-.06-.06-.06-.06-.06-.06-.06-.07L76,136.6l-.06-.06-.06-.06-.06-.06a6.21,6.21,0,0,0-3.67-1.79l2.72-.51V126h-.06v-.07h-.06v-.08l-.07,0v-.08H74.6v-.07h-.06v-.07h-.06v-.07h-.06v-.07h-.06v-.07H74.3v-.07h-.06v-.07h-.06v-.07h-.06v-.07h-.06v-.08l-.07,0v-.08l-.06,0v-.08h-.06V125h-.06V125h-.06v-.07h-.06v-.07h-.06v-.07h-.06v-.07h-.06v-.07h-.06v-.07h-.06v-.07h-.06v-.08l-.07,0v-.08l-.06,0v-.08h-.06v-.07h-.06v-.07H73v-.07H73v-.07H72.9v-.07h-.06V124h-.06v-.07h-.06v-.07h-.06v-.07H72.6v-.08l-.07,0v-.08l-.06,0v-.08h-.06v-.07h-.06v-.07h-.06v-.07h-.06v-.07h-.06v-.07h-.06v-.07h-.06v-.07H72v-.07h-.06v-.07h-.06V123l-.07,0V123h-.06v-.07h-.06v-.07h-.06v-.07h-.06v-.07H71.5v-.07h-.06v-.07h-.06v-.07h-.06v-.07h-.06v-.07H71.2v-.07h-.06v-.08l-.07,0v-.08H71v-.07H71v-.07h-.06V122h-.06V122h-.06v-.07h-.06v-.07h-.06v-.07h-.06v-.07h-.06v-.07h-.06v-.08l-.06,0v-.08l-.07,0v-.08h-.06v-.07h-.06v-.07h-.06v-.07H70.1v-.07H70v-.07H70v-.07h-.06v-.07h-.06V121H69.8V121h-.06v-.08l-.07,0v-.08l-.06,0v-.08h-.06v-.07h-.06v-.07h-.06v-.07h-.06v-.07h-.06v-.07h-.06v-.07h-.06v-.07h-.06v-.07h-.06v-.07H69v-.08l-.07,0v-.08l-.06,0V120h-.06V120h-.06v-.07H68.7v-.07h-.06v-.07h-.06v-.07h-.06v-.07h-.06v-.07H68.4v-.07h-.06v-.07h-.06v-.08l-.07,0v-.08l-.06,0v-.08h-.06v-.07H68v-.07H68v-.07h-.06v-.07h-.06V119h-.06v-.07h-.06v-.07h-.06v-.07h-.06v-.07h-.06v-.08l-.07,0v-.08h-.06v-.07h-.06v-.07H67.3v-.07h-.06v-.07h-.06v-.07h-.06v-.07h-.06v-.07H67v-.07h-.06v-.07h-.06V118l-.06,0V118l-.07,0v-.08h-.06v-.07h-.06v-.07h-.06v-.07h-.06v-.07h-.06v-.07h-.06v-.07h-.06v-.07h-.06v-.07h-.06v-.07h-.06v-.08l-.07,0v-.08l-.06,0v-.08H66v-.07H65.9v-.07h-.06V117h-.06v-.07h-.06v-.07h-.06v-.07H65.6v-.07h-.06v-.07h-.06v-.07h-.06v-.08l-.07,0v-.08l-.06,0v-.08h-.06v-.07h-.06v-.07h-.06v-.07h-.06v-.07H65v-.07h-.06v-.07h-.06V116h-.06V116h-.06v-.07h-.06v-.08l-.07,0v-.08l-.06,0v-.08H64.5v-.07h-.06v-.07h-.06v-.07h-.06v-.07h-.06v-.07H64.2v-.07h-.06v-.07h-.06v-.07H64v-.07H64v-.08l-.07,0V115h-.06V115h-.06v-.07h-.06v-.07h-.06v-.07h-.06v-.07h-.06v-.07h-.06v-.07h-.06v-.07h-.06v-.07h-.06v-.07h-.06v-.08l-.07,0v-.08H63.1v-.07H63v-.07H63v-.07h-.06v-.07h-.06V114H62.8V114h-.06v-.07h-.06v-.07h-.06v-.07l-11.39,2.14V98h-.06v-.07h-.06v-.07h-.06v-.07H51v-.07h-.06v-.07h-.06v-.07H50.8v-.08l-.06,0v-.08l-.06,0V97.4h-.06v-.07h-.06v-.07H50.5v-.07h-.06v-.07h-.06V97.1h-.06V97h-.07V97h-.06v-.07h-.06v-.07h-.06v-.08l-.06,0v-.08H50v-.07h-.06v-.07h-.06v-.07h-.06v-.07h-.06v-.07h-.06v-.07h-.06v-.07h-.07v-.07h-.06v-.07H49.4v-.08l-.06,0v-.08l-.06,0V96h-.06v-.07h-.06v-.07H49.1v-.07H49v-.07H49V95.7h-.06v-.07h-.06v-.07h-.07v-.07h-.06v-.07h-.06v-.08l-.06,0v-.08l-.06,0v-.08h-.06v-.07h-.06v-.07h-.06v-.07h-.06V95h-.06V95h-.06v-.07h-.07v-.07h-.06v-.07H48v-.07h-.06v-.08l-.06,0V94.6l-.06,0v-.08h-.06v-.07H47.7v-.07h-.06v-.07h-.06V94.3h-.06v-.07h-.06v-.07h-.07v-.07h-.06v-.07h-.06V94h-.06v-.08l-.06,0v-.08l-.06,0v-.08H47v-.07H47v-.07h-.06v-.07h-.06v-.07h-.06v-.07h-.06v-.07h-.07v-.07H46.6v-.07h-.06v-.07h-.06V93.2l-.06,0v-.08h-.06v-.07H46.3V93h-.06V93h-.06V92.9h-.06v-.07h-.06v-.07H46v-.07h-.07v-.07h-.06V92.6h-.06v-.07h-.06v-.08l-.06,0v-.08h-.06v-.07h-.06v-.07h-.06v-.07h-.06v-.07h-.06v-.07h-.06v-.07h-.06V92H45.2v-.07h-.06v-.07h-.06V91.8l-.06,0v-.08l-.06,0v-.08H44.9v-.07h-.06v-.07h-.06V91.5h-.06v-.07h-.06v-.07H44.6v-.07h-.06v-.07h-.07V91.2h-.06v-.07h-.06v-.08l-.06,0V91l-.06,0V91h-.06v-.07h-.06v-.07h-.06v-.07H44v-.07h-.06v-.07h-.06v-.07H43.8v-.07h-.06v-.07h-.06v-.07h-.06v-.08l-.06,0v-.08l-.06,0v-.08h-.06v-.07h-.06V90.1h-.06V90h-.06V90H43.2v-.07h-.06v-.07h-.07V89.8H43v-.07H43v-.07h-.06v-.08l-.06,0v-.08h-.06v-.07h-.06v-.07h-.06v-.07h-.06v-.07h-.06v-.07h-.06v-.07h-.06v-.07h-.07v-.07h-.06V89h-.06V89h-.06v-.08l-.06,0v-.08H42v-.07H42V88.7h-.06v-.07h-.06v-.07H41.8v-.07h-.06v-.07h-.06V88.4h-.07v-.07h-.06v-.07h-.06v-.08l-.06,0v-.08l-.06,0v-.08h-.06V88h-.06V88h-.06v-.07h-.06v-.07h-.06v-.07H41v-.07H41v-.07h-.07v-.07h-.06v-.07h-.06v-.08l-.06,0v-.08l-.06,0v-.08h-.06V87.3h-.06v-.07h-.06v-.07H40.4v-.07h-.06v-.07h-.06V87h-.07v-.07h-.06v-.07h-.06v-.07H40v-.08l-.06,0v-.08l-.06,0v-.08h-.06v-.07h-.06v-.07h-.06v-.07h-.06v-.07h-.06v-.07h-.06v-.07h-.07v-.07h-.06v-.07h-.06v0Z"/><path class="cls-3" d="M5.78,69.81l22.51-4.25c2.79-.52,2.9-2.34,2.9-3.33,0-1.39-.69-2.42-3.13-2.72l-15.9-1.76c-5.28-.57-6.85-4.39-6.85-10.08,0-6.09,2.67-10.78,9.4-12L39.78,30.9V39L18.77,43a3.07,3.07,0,0,0-2.84,3.21c0,1.57.81,2.52,3.25,2.81l14.28,1.49c6,.6,8.41,3.17,8.41,9.84,0,6.45-2.38,11.25-9.28,12.55L5.78,77.93Z"/><path class="cls-3" d="M74.19,49V24.41l10.45-2V47.57c0,12.19-7,17.28-18.92,19.53S46.8,66.89,46.8,54.7V29.58l10.45-2v24.6c0,5.81,2.67,7.86,8.47,6.76S74.19,54.82,74.19,49Z"/><path class="cls-3" d="M91,61.86V27.51c0-4.35,2.38-6.72,6.15-7.43L118.77,16c9-1.69,11,3.57,11,11.69s-2,14.24-11,15.94l-17.3,3.26v13Zm22.34-25.33c4.35-.82,5.69-2.76,5.69-6.82s-1.34-5.38-5.69-4.55l-9.17,1.72c-2,.39-2.73,1.21-2.73,3.24v8.65Z"/><path class="cls-3" d="M168.73,14.49l-20.89,3.94c-2,.38-2.73,1.21-2.73,3.24V27.3l23.1-4.36v7.55l-23.1,4.35v6.21c0,2,.7,2.6,2.73,2.21l21.12-4v7.89l-28.14,5.31c-3.77.71-6.15-.7-6.15-5V19.28c0-4.35,2.38-6.71,6.15-7.42l27.91-5.27Z"/><path class="cls-3" d="M174.19,11.83c0-4.35,2.38-6.71,6.15-7.42L202,.32c8.42-1.59,10.85,2.88,10.85,11.3,0,7.08-1.74,14.31-9.22,15.72l-2.9.55v.29l12.94,10.56-12.83,2.42-9.17-8.84c-1.51-1.4-3.65-2.79-3.65-5.05v-.93c0-3,2.2-4.07,6-4.78l3.43-.65c3.89-.73,4.76-2.87,4.76-6.93s-1.22-5.34-5.17-4.6l-9.69,1.83c-2,.38-2.73,1.21-2.73,3.24V44.22l-10.44,2Z"/><path class="cls-3" d="M34.7,127.15c-3.77.71-6.15-.69-6.15-5.05V87.69l10.45-2v29.77c0,2,.69,2.6,2.73,2.21l20.89-3.93v8.12Z"/><path class="cls-3" d="M106.08,93.39c0,16.94-5.62,21.83-21.58,24.84s-21.59.24-21.59-16.7S68.54,79.69,84.5,76.68,106.08,76.5,106.08,93.39ZM84.5,110.11C93,108.51,95.41,105,95.41,95.4S93,83.21,84.5,84.81s-10.91,5.13-10.91,14.7S76,111.7,84.5,110.11Z"/><path class="cls-3" d="M122,110.69V78.19L107,81V72.91l40.62-7.65v8.12l-15.09,2.84v32.5Z"/><path class="cls-3" d="M191.63,77.26c0,16.95-5.63,21.84-21.59,24.85s-21.59.24-21.59-16.71S154.08,63.57,170,60.56,191.63,60.38,191.63,77.26ZM170,94c8.47-1.59,10.91-5.13,10.91-14.7s-2.44-12.2-10.91-10.6-10.91,5.13-10.91,14.71S161.57,95.58,170,94Z"/><path class="cls-4" d="M0,147.56l6.72-1.26v26.13L0,173.7Zm18.67,22.62-9.41-8.27A3.93,3.93,0,0,1,8,158.79a5.64,5.64,0,0,1,1-3.11l8.47-11.42,8.07-1.52-10.2,12.68a3.42,3.42,0,0,0-1,2.09c0,.82.48,1.33,1.3,2l11.24,9.12Z"/><path class="cls-4" d="M32.18,167.63c-2.42.46-3.95-.45-3.95-3.25V142.24L35,141v19.15c0,1.31.45,1.67,1.75,1.42L50.14,159v5.23Z"/><path class="cls-4" d="M78.11,145.91c0,10.9-3.62,14.05-13.89,16s-13.89.16-13.89-10.75,3.62-14,13.89-16S78.11,135,78.11,145.91ZM64.22,156.66c5.45-1,7-3.3,7-9.46s-1.57-7.84-7-6.81-7,3.3-7,9.46S58.77,157.69,64.22,156.66Z"/><path class="cls-4" d="M99.09,144.72V128.88l6.72-1.26v16.17c0,7.84-4.51,11.11-12.17,12.56s-12.17-.14-12.17-8V132.21l6.72-1.27v15.83c0,3.73,1.72,5,5.45,4.35S99.09,148.45,99.09,144.72Z"/><path class="cls-4" d="M113.88,152.23c-2.43.46-4-.45-4-3.25v-18.1a4.45,4.45,0,0,1,4-4.78l10.49-2c8.74-1.65,10.68,3.4,10.68,11.06s-1.94,13.43-10.34,15Zm2.76-7.61c0,1.42.45,1.78,1.87,1.51l1.53-.28c6-1.13,8.14-3,8.14-9.38S126,129,120,130.16l-1.53.29c-1.42.27-1.87.8-1.87,2.22Z"/><path class="cls-4" d="M163,135.74c0,4.44-1.27,7.48-6.57,8.48l-14,2.64c-2.43.46-4-.45-4-3.25v-18.1a4.45,4.45,0,0,1,4-4.78L156,118.15c4.52-.85,6.46,1.06,6.46,6,0,2.72-.93,5.18-3.81,6.2v.15C162,130.39,163,132.38,163,135.74Zm-17.85-5,8.06-1.52c1.83-.35,2.58-1.2,2.58-3.25,0-1.87-.75-2.55-2.61-2.2l-6.35,1.2c-1.31.24-1.68.69-1.68,2Zm0,8.66c0,1.49.37,1.8,1.87,1.51l6.23-1.17c2-.38,2.88-1.33,2.88-3.38s-.86-2.68-2.73-2.33l-8.25,1.56Z"/><path class="cls-4" d="M193.56,124.15c0,10.9-3.63,14-13.89,16s-13.89.16-13.89-10.75,3.62-14,13.89-16S193.56,113.28,193.56,124.15ZM179.67,134.9c5.45-1,7-3.3,7-9.46s-1.57-7.84-7-6.81-7,3.3-7,9.46S174.22,135.93,179.67,134.9Z"/><path class="cls-4" d="M213.83,133.39,208,126l-5.86,9.65-8,1.51,10-15.14-9.67-11.06,8-1.5,5.56,7.17,5.56-9.27,8-1.5-9.67,14.7,10,11.38Z"/></g></g></svg>